<?xml version="1.0" encoding="utf-8"?><svg xmlns="http://www.w3.org/2000/svg" xmlns:xlink="http://www.w3.org/1999/xlink"><symbol viewBox="0 0 52 51" id="bacteria" xmlns="http://www.w3.org/2000/svg"><path d="M32.125 29.474c.329 0 .651-.134.884-.367a1.26 1.26 0 0 0 .366-.883 1.26 1.26 0 0 0-.366-.884 1.26 1.26 0 0 0-.884-.366 1.26 1.26 0 0 0-.884.366 1.26 1.26 0 0 0-.366.884c0 .329.134.651.366.883.233.233.555.367.884.367zm-5.559 2.485c.33 0 .651-.134.885-.367a1.256 1.256 0 0 0 0-1.767 1.25 1.25 0 1 0-.885 2.134zm5.495.994a1.26 1.26 0 0 0-.366.883c0 .329.134.651.366.884.234.233.555.366.884.366.33 0 .651-.133.885-.366a1.26 1.26 0 0 0 .365-.884c0-.329-.133-.65-.365-.883a1.264 1.264 0 0 0-.885-.367 1.26 1.26 0 0 0-.884.367zm-10.58-17.221c-2.619 0-4.75 2.13-4.75 4.75s2.131 4.75 4.75 4.75c2.62 0 4.75-2.13 4.75-4.75s-2.13-4.75-4.75-4.75zm0 7c-1.24 0-2.25-1.01-2.25-2.25s1.01-2.25 2.25-2.25 2.25 1.01 2.25 2.25-1.01 2.25-2.25 2.25zM38.42 6.186a1.248 1.248 0 0 0 1.712-.357 1.25 1.25 0 1 0-1.711.357z"/><path d="M4.133 37.875c.017.03.037.057.057.085C8.574 45.455 16.708 50.5 26 50.5c13.923 0 25.25-11.327 25.25-25.25 0-6.742-2.624-13.081-7.39-17.85a1.25 1.25 0 1 0-1.769 1.768 22.94 22.94 0 0 1 2.961 3.639L33.35 19.564a22.34 22.34 0 0 1-2.553-2.57l1.19-1.425a1.25 1.25 0 1 0-1.918-1.603l-.813.973c-.106-.16-.211-.321-.313-.485a9.733 9.733 0 0 0-1.885-2.202l.664-1.606a1.25 1.25 0 0 0-2.31-.956l-.48 1.16c-1-.489-2.08-.808-3.192-.94v-.663a1.25 1.25 0 1 0-2.5 0v.689a9.696 9.696 0 0 0-1.456.312l.355 1.198-.355-1.198a9.996 9.996 0 0 0-1.575.614l-.38-.85a1.25 1.25 0 1 0-2.282 1.02l.55 1.23a9.812 9.812 0 0 0-2.323 2.991l-1.107-.569a1.25 1.25 0 1 0-1.144 2.223l1.404.721a9.699 9.699 0 0 0 .149 4.782l-1.064.54a1.25 1.25 0 1 0 1.13 2.23l.928-.471.118.195c.424.681.87 1.349 1.334 2.004l-1.202.71a1.25 1.25 0 0 0 1.27 2.152l1.447-.853c.224.278.45.553.681.826l-10.012 5.78A22.613 22.613 0 0 1 3.25 25.25C3.25 12.706 13.456 2.5 26 2.5c2.807 0 5.546.505 8.142 1.5a1.25 1.25 0 1 0 .895-2.334A25.153 25.153 0 0 0 26 0C12.077 0 .75 11.327.75 25.25c0 4.556 1.213 8.834 3.333 12.528.016.033.031.065.05.097zM14.31 23.581a7.264 7.264 0 0 1-.627-6.47 7.336 7.336 0 0 1 4.811-4.466 7.359 7.359 0 0 1 2.093-.304c2.49 0 4.878 1.262 6.235 3.437a24.293 24.293 0 0 0 1.418 2.028 24.791 24.791 0 0 0 2.828 3.075L17.92 28.47a39.045 39.045 0 0 1-3.61-4.89zm20.996.434a7.406 7.406 0 0 1 3.646 6.368c0 1.302-.35 2.588-1.013 3.719a7.324 7.324 0 0 1-4.498 3.405 7.324 7.324 0 0 1-5.589-.772 39.707 39.707 0 0 1-8.193-6.381l13.47-7.777c.7.516 1.425.998 2.177 1.438zm-17.879 7.628a42.457 42.457 0 0 0 3.14 2.967l-.983 1.112a1.25 1.25 0 0 0 1.873 1.656l1.063-1.202c1.3.982 2.659 1.89 4.068 2.716l-.379 1.415a1.25 1.25 0 1 0 2.415.648l.288-1.073a9.748 9.748 0 0 0 2.65.369l.141-.003.243 1.245a1.25 1.25 0 0 0 2.454-.48l-.219-1.118a9.849 9.849 0 0 0 3.315-1.613l.603.603a1.247 1.247 0 0 0 1.768 0 1.25 1.25 0 0 0 0-1.768l-.577-.577a9.878 9.878 0 0 0 2.11-5.163h.504a1.25 1.25 0 1 0 0-2.5h-.57a9.939 9.939 0 0 0-2.152-4.79l.98-.696a1.25 1.25 0 0 0-1.45-2.037l-1.393.991a9.686 9.686 0 0 0-.75-.488 23.17 23.17 0 0 1-1.052-.658l10.79-6.23A22.655 22.655 0 0 1 48.75 25.25C48.75 37.794 38.544 48 26 48c-7.958 0-14.973-4.108-19.04-10.314l10.467-6.043z"/></symbol><symbol viewBox="0 0 58 58" id="calendar" xmlns="http://www.w3.org/2000/svg"><path d="M46 34c-6.617 0-12 5.383-12 12s5.383 12 12 12 12-5.383 12-12-5.383-12-12-12zm0 22c-5.514 0-10-4.486-10-10s4.486-10 10-10 10 4.486 10 10-4.486 10-10 10z"/><path d="M52 45h-5v-5a1 1 0 1 0-2 0v6a1 1 0 0 0 1 1h6a1 1 0 1 0 0-2zM27 21H7v29h20V32h18V21H27zm9 2h7v7h-7v-7zm-18 0h7v7h-7v-7zm-9 0h7v7H9v-7zm0 9h7v7H9v-7zm7 16H9v-7h7v7zm9 0h-7v-7h7v7zm0-9h-7v-7h7v7zm9-9h-7v-7h7v7z"/><path d="M33 55H2V16h48v13a1 1 0 1 0 2 0V5a1 1 0 0 0-1-1h-5V1a1 1 0 0 0-1-1h-7a1 1 0 0 0-1 1v3H15V1a1 1 0 0 0-1-1H7a1 1 0 0 0-1 1v3H1a1 1 0 0 0-1 1v51a1 1 0 0 0 1 1h32a1 1 0 1 0 0-2zm6-53h5v6h-5V2zM8 2h5v6H8V2zM2 6h4v3a1 1 0 0 0 1 1h7a1 1 0 0 0 1-1V6h22v3a1 1 0 0 0 1 1h7a1 1 0 0 0 1-1V6h4v8H2V6z"/></symbol><symbol viewBox="0 0 16 16" id="calendar-mini" xmlns="http://www.w3.org/2000/svg"><path fill-rule="evenodd" clip-rule="evenodd" d="M12.572 1.36h1.987c.312 0 .565.253.565.564v13.511a.565.565 0 0 1-.565.565H1.441a.565.565 0 0 1-.565-.565V1.925c0-.312.253-.565.565-.565h1.987V.565a.565.565 0 0 1 1.13 0v.795h6.885V.565a.565.565 0 0 1 1.129 0v.795zM2.006 14.87h11.989V5.449H2.005v9.423zm0-10.55h11.989V2.488H2.005v1.83zm4.82 3.072l1.23-.746c.277-.173.913.011.913.392v5.926c0 .299-.363.448-.727.448-.363 0-.727-.15-.727-.448V8.221l-.27.168c-.55.366-.997-.65-.42-.997z"/></symbol><symbol viewBox="0 0 18 13" id="checkmark" xmlns="http://www.w3.org/2000/svg"><path fill-rule="evenodd" clip-rule="evenodd" d="M17.707.293a1 1 0 0 1 0 1.414l-11 11a1 1 0 0 1-1.414 0l-5-5a1 1 0 0 1 1.414-1.414L6 10.586 16.293.293a1 1 0 0 1 1.414 0z"/></symbol><symbol viewBox="0 0 24 40" id="chevron-left" xmlns="http://www.w3.org/2000/svg"><path fill-rule="evenodd" clip-rule="evenodd" d="M7.182 20l16.41 16.409-3.183 3.182L.82 20 20.408.409l3.182 3.182L7.182 20z"/></symbol><symbol viewBox="0 0 23 40" id="chevron-right" xmlns="http://www.w3.org/2000/svg"><path fill-rule="evenodd" clip-rule="evenodd" d="M16.411 20L.002 36.409l3.182 3.182L22.775 20 3.185.409.001 3.59 16.412 20z"/></symbol><symbol viewBox="0 0 36 36" id="coins" xmlns="http://www.w3.org/2000/svg"><path d="M24.044 23.088c-.853 0-1.547-.6-1.547-1.34 0-.737.694-1.338 1.547-1.338.852 0 1.546.6 1.546 1.339a.703.703 0 0 0 1.407 0c0-1.289-.96-2.372-2.25-2.666v-.366a.703.703 0 0 0-1.407 0v.366c-1.29.294-2.25 1.377-2.25 2.666 0 1.514 1.325 2.745 2.954 2.745.852 0 1.546.6 1.546 1.339 0 .738-.694 1.339-1.546 1.339-.853 0-1.547-.6-1.547-1.34a.703.703 0 0 0-1.407 0c0 1.29.96 2.373 2.25 2.667v.303a.703.703 0 0 0 1.407 0V28.5c1.29-.294 2.25-1.378 2.25-2.666 0-1.514-1.325-2.745-2.953-2.745zm7.701-4.182a9.161 9.161 0 0 0-3.742-3.312.703.703 0 1 0-.61 1.267 7.78 7.78 0 0 1 4.388 6.975c0 1.265-.312 2.52-.901 3.628a.703.703 0 1 0 1.241.66 9.16 9.16 0 0 0 1.066-4.288 9.11 9.11 0 0 0-1.442-4.93zm-6.596-4.211h-.047a.703.703 0 1 0 0 1.407h.044a.703.703 0 0 0 .003-1.407zM20.7 30.811a7.781 7.781 0 0 1-4.387-6.975c0-1.265.311-2.519.901-3.627a.703.703 0 0 0-1.241-.661 9.16 9.16 0 0 0 .376 9.219 9.162 9.162 0 0 0 3.742 3.311.7.7 0 0 0 .938-.329.703.703 0 0 0-.329-.938zm2.292.759h-.04a.703.703 0 1 0-.007 1.406h.047a.703.703 0 0 0 0-1.406z"/><path d="M27.24 12.316a3.221 3.221 0 0 0-.313-.574h1.83a3.238 3.238 0 0 0 3.235-3.234 3.238 3.238 0 0 0-3.234-3.235h-5.63a3.22 3.22 0 0 0 .567-1.828A3.238 3.238 0 0 0 20.461.211H3.234A3.238 3.238 0 0 0 0 3.445 3.238 3.238 0 0 0 3.234 6.68h5.631a3.216 3.216 0 0 0-.568 1.828c0 .678.21 1.307.568 1.828H7.031a3.238 3.238 0 0 0-3.234 3.234 3.23 3.23 0 0 0 1.224 2.532 3.23 3.23 0 0 0 0 5.062 3.23 3.23 0 0 0 0 5.063 3.23 3.23 0 0 0-1.224 2.53 3.238 3.238 0 0 0 3.234 3.235h8.287a11.922 11.922 0 0 0 8.729 3.797C30.637 35.79 36 30.427 36 23.836c0-5.486-3.715-10.12-8.76-11.52zm1.518-5.636a1.83 1.83 0 0 1 1.828 1.828 1.83 1.83 0 0 1-1.828 1.828H11.53a1.83 1.83 0 0 1-1.828-1.828A1.83 1.83 0 0 1 11.53 6.68h17.227zM3.234 5.273a1.83 1.83 0 0 1-1.828-1.828 1.83 1.83 0 0 1 1.828-1.828h17.227a1.83 1.83 0 0 1 1.828 1.828 1.83 1.83 0 0 1-1.828 1.828H3.234zm3.797 6.47h17.227c.283 0 .554.065.797.183a11.916 11.916 0 0 0-9.467 3.473H7.031a1.83 1.83 0 0 1-1.828-1.829 1.83 1.83 0 0 1 1.828-1.828zm0 5.062h7.356a11.917 11.917 0 0 0-1.807 3.656H7.03a1.83 1.83 0 0 1-1.828-1.828 1.83 1.83 0 0 1 1.828-1.828zm0 5.062h5.226a11.978 11.978 0 0 0-.043 3.656H7.03a1.83 1.83 0 0 1-1.828-1.828 1.83 1.83 0 0 1 1.828-1.828zm0 8.719a1.83 1.83 0 0 1-1.828-1.828 1.83 1.83 0 0 1 1.828-1.828h5.47a11.906 11.906 0 0 0 1.687 3.656H7.03zm17.016 3.797c-5.816 0-10.547-4.732-10.547-10.547 0-5.816 4.731-10.547 10.547-10.547 5.815 0 10.547 4.731 10.547 10.547 0 5.816-4.732 10.547-10.547 10.547z"/></symbol><symbol viewBox="0 0 18 13" id="custom-check" xmlns="http://www.w3.org/2000/svg"><path fill-rule="evenodd" clip-rule="evenodd" d="M17.707.293a1 1 0 0 1 0 1.414l-11 11a1 1 0 0 1-1.414 0l-5-5a1 1 0 0 1 1.414-1.414L6 10.586 16.293.293a1 1 0 0 1 1.414 0z"/></symbol><symbol viewBox="0 0 50 50" id="desinf" xmlns="http://www.w3.org/2000/svg"><path fill-rule="evenodd" clip-rule="evenodd" d="M25 47c12.15 0 22-9.85 22-22S37.15 3 25 3 3 12.85 3 25s9.85 22 22 22zm0 3c13.807 0 25-11.193 25-25S38.807 0 25 0 0 11.193 0 25s11.193 25 25 25z"/><path d="M15.812 26.885c-.663.65-1.436.975-2.32.975-1.132 0-2.037-.386-2.717-1.16-.68-.78-1.02-1.828-1.02-3.146a4.9 4.9 0 0 1 .546-2.303 4.022 4.022 0 0 1 1.538-1.635c.656-.392 1.394-.589 2.215-.589.844 0 1.594.211 2.25.633.656.422 1.166 1.029 1.529 1.82.363.79.548 1.696.554 2.715v.94c0 2.134-.53 3.81-1.591 5.028-1.06 1.219-2.564 1.87-4.509 1.951l-.624.009v-2.118l.563-.009c2.209-.1 3.404-1.137 3.585-3.111zm-1.697-.967c.41 0 .762-.105 1.055-.316a2.1 2.1 0 0 0 .677-.765V23.79c0-.861-.164-1.53-.492-2.004-.329-.474-.768-.712-1.319-.712-.51 0-.929.235-1.257.703-.328.463-.492 1.046-.492 1.75 0 .697.158 1.27.475 1.722.322.445.773.668 1.353.668zm14.705.791c0 1.77-.367 3.123-1.1 4.06-.732.938-1.804 1.407-3.216 1.407-1.395 0-2.461-.46-3.2-1.38-.738-.92-1.115-2.238-1.133-3.955v-2.356c0-1.787.369-3.143 1.107-4.069.745-.926 1.814-1.389 3.208-1.389 1.395 0 2.461.46 3.2 1.38.738.914 1.116 2.23 1.133 3.947v2.355zm-2.54-2.584c0-1.06-.147-1.831-.44-2.311-.287-.487-.738-.73-1.354-.73-.597 0-1.04.231-1.327.694-.281.457-.43 1.175-.448 2.154v3.111c0 1.043.14 1.82.422 2.33.287.503.744.755 1.37.755.622 0 1.07-.243 1.346-.73.275-.486.419-1.23.43-2.232v-3.041zm4.227-2.461c0-.785.255-1.42.764-1.907.51-.492 1.178-.738 2.004-.738.838 0 1.512.243 2.022.729.51.48.765 1.134.765 1.96v.633c0 .79-.255 1.427-.765 1.907s-1.178.72-2.004.72c-.832 0-1.506-.24-2.021-.72-.51-.486-.765-1.14-.765-1.96v-.624zm1.687.677c0 .351.1.636.3.852.204.211.47.317.799.317.328 0 .589-.109.782-.325.194-.217.29-.507.29-.87v-.65c0-.352-.096-.637-.29-.854-.193-.216-.46-.325-.8-.325-.322 0-.583.109-.782.325-.2.212-.299.507-.299.888v.642zm4.43 6.521c0-.79.258-1.426.773-1.907.516-.486 1.184-.73 2.004-.73.832 0 1.503.24 2.013.721.516.475.773 1.131.773 1.969v.633c0 .785-.252 1.42-.755 1.907-.504.48-1.175.72-2.013.72-.844 0-1.52-.242-2.03-.729-.51-.486-.765-1.13-.765-1.933v-.65zm1.688.686c0 .322.105.598.316.826.21.229.474.343.79.343.716 0 1.073-.396 1.073-1.187v-.668c0-.351-.1-.632-.299-.843-.199-.217-.462-.326-.79-.326-.329 0-.592.109-.792.326-.199.21-.298.5-.298.87v.659zm-4.518 1.494l-1.24-.668 6.25-10.002 1.239.668-6.25 10.002z"/></symbol><symbol viewBox="0 0 64 64" id="destination" xmlns="http://www.w3.org/2000/svg"><g clip-path="url(#aja)"><path d="M11.733 59.733c.324 0 .63-.147.832-.4.449-.554 10.902-13.671 10.902-19.866 0-6.48-5.253-11.734-11.734-11.734C5.253 27.733 0 32.986 0 39.467c0 6.195 10.453 19.306 10.902 19.866.202.253.508.4.831.4zm0-29.866a9.61 9.61 0 0 1 9.6 9.6c0 4.138-6.305 13.188-9.6 17.47-3.294-4.28-9.6-13.33-9.6-17.47a9.61 9.61 0 0 1 9.6-9.6z"/><path d="M16 38.4a4.267 4.267 0 1 0-8.534 0 4.267 4.267 0 0 0 8.534 0zm-6.4 0a2.133 2.133 0 1 1 4.267 0 2.133 2.133 0 0 1-4.267 0zm45.867-16c.31 0 .605-.135.808-.371C57.067 21.11 64 12.926 64 8.533A8.533 8.533 0 0 0 55.467 0a8.533 8.533 0 0 0-8.534 8.533c0 4.393 6.934 12.577 7.725 13.496.203.236.498.371.809.371zm0-20.267a6.406 6.406 0 0 1 6.4 6.4c0 2.704-4.073 8.273-6.4 11.135-2.329-2.862-6.4-8.426-6.4-11.135a6.406 6.406 0 0 1 6.4-6.4z"/><path d="M58.667 7.467a3.2 3.2 0 1 0-6.4 0 3.2 3.2 0 0 0 6.4 0zm-4.267 0a1.067 1.067 0 1 1 2.133 0 1.067 1.067 0 0 1-2.133 0zm0 19.2h1.067a1.067 1.067 0 0 0 0-2.134H54.4a1.067 1.067 0 0 0 0 2.134zm-13.867 6.4h2.157a1.067 1.067 0 0 0 0-2.134h-2.174A1.06 1.06 0 0 0 39.458 32c.004.59.485 1.067 1.075 1.067zM52.492 32c0 .59.477 1.067 1.066 1.067h2.173a1.067 1.067 0 0 0 0-2.134h-2.173c-.589 0-1.066.478-1.066 1.067zm-4.612-5.333h2.173a1.067 1.067 0 0 0 0-2.134H47.88a1.066 1.066 0 1 0 0 2.134zm-28.45 35.2h-2.175a1.067 1.067 0 0 0 0 2.133h2.174a1.067 1.067 0 0 0 0-2.133zM37.4 30.528a1.067 1.067 0 0 0 1.045-1.285 2.132 2.132 0 0 1 .186-1.413 1.066 1.066 0 1 0-1.9-.968 4.267 4.267 0 0 0-.373 2.816c.103.494.538.85 1.043.85zm9.64 2.539h2.174a1.067 1.067 0 0 0 0-2.134H47.04a1.067 1.067 0 0 0 0 2.134zm-5.681-6.4h2.174a1.067 1.067 0 0 0 0-2.134h-2.174a1.067 1.067 0 0 0 0 2.134zM30.818 45.202a1.067 1.067 0 0 0 1.293-.777 3.764 3.764 0 0 1 .76-1.493 1.066 1.066 0 1 0-1.632-1.372 5.877 5.877 0 0 0-1.197 2.347 1.065 1.065 0 0 0 .776 1.295zm21.073 16.62c-.23.03-.46.045-.691.045h-1.343a1.066 1.066 0 1 0 0 2.133H51.2c.32 0 .642-.02.96-.062a1.068 1.068 0 0 0-.273-2.116h.004zm1.486-12.436a7.46 7.46 0 0 0-2.177-.32h-.28a1.067 1.067 0 0 0 0 2.134h.28c.527 0 1.052.078 1.556.23a1.067 1.067 0 0 0 .62-2.04v-.003zM51.102 41.6a1.067 1.067 0 0 0 0-2.133H48.93a1.067 1.067 0 0 0 0 2.133h2.173zm6.374 16.585a1.066 1.066 0 0 0-1.41.534 5.324 5.324 0 0 1-1.008 1.493 1.065 1.065 0 0 0 .509 1.793c.376.089.772-.033 1.032-.319a7.43 7.43 0 0 0 1.413-2.091 1.067 1.067 0 0 0-.536-1.41zm5.587-21.731a1.067 1.067 0 0 0-1.327.721 3.236 3.236 0 0 1-.832 1.38 1.067 1.067 0 1 0 1.493 1.526 5.36 5.36 0 0 0 1.386-2.3 1.067 1.067 0 0 0-.72-1.327zm-1.218-1.969a1.067 1.067 0 0 0 .795-1.779 5.368 5.368 0 0 0-2.24-1.485 1.067 1.067 0 0 0-.693 2.019 3.2 3.2 0 0 1 1.344.891c.202.226.491.354.794.354zM46.574 49.067h-2.173a1.067 1.067 0 0 0 0 2.133h2.173a1.067 1.067 0 0 0 0-2.133zm11.049-9.6h-2.174a1.067 1.067 0 0 0 0 2.133h2.174a1.067 1.067 0 0 0 0-2.133zm-31.673 22.4h-2.174a1.067 1.067 0 0 0 0 2.133h2.173a1.067 1.067 0 0 0 0-2.133zm31.43-9.526a1.069 1.069 0 0 0-1.765 1.206 5.29 5.29 0 0 1 .746 1.637 1.067 1.067 0 1 0 2.065-.533 7.41 7.41 0 0 0-1.047-2.31zm-23.298-3.657a3.793 3.793 0 0 1-1.298-1.061 1.066 1.066 0 1 0-1.686 1.308 5.92 5.92 0 0 0 2.04 1.665 1.067 1.067 0 0 0 .944-1.912zM32.47 61.867h-2.177a1.067 1.067 0 0 0 0 2.133h2.176a1.067 1.067 0 0 0 0-2.133zm13.04 0h-2.173a1.067 1.067 0 0 0 0 2.133h2.173a1.067 1.067 0 0 0 0-2.133zM38.062 41.6a1.067 1.067 0 0 0 0-2.133H35.89a1.067 1.067 0 0 0 0 2.133h2.173zm6.524 0a1.067 1.067 0 0 0 0-2.133h-2.178a1.067 1.067 0 0 0 0 2.133h2.178zm-4.532 7.467h-2.173a1.067 1.067 0 0 0 0 2.133h2.173a1.066 1.066 0 1 0 0-2.133zm-1.063 12.8h-2.174a1.067 1.067 0 0 0 0 2.133h2.174a1.067 1.067 0 0 0 0-2.133zm-26.191 0h-1.067a1.067 1.067 0 0 0 0 2.133H12.8a1.067 1.067 0 0 0 0-2.133z"/></g><defs><clipPath id="aja"><path d="M0 0h64v64H0z"/></clipPath></defs></symbol><symbol viewBox="0 0 33 32" id="fb" xmlns="http://www.w3.org/2000/svg"><path fill-rule="evenodd" clip-rule="evenodd" d="M16.56 0C7.755 0 .62 6.95.62 15.522c0 8.573 7.136 15.523 15.94 15.523 8.803 0 15.94-6.95 15.94-15.523C32.5 6.95 25.363 0 16.56 0zm1.66 16.204v8.445h-3.587v-8.444H12.84v-2.91h1.793v-1.748c0-2.374 1.012-3.786 3.888-3.786h2.394v2.91H19.42c-1.12 0-1.194.408-1.194 1.167l-.004 1.456h2.711l-.317 2.91H18.22z"/></symbol><symbol viewBox="0 0 50 44" id="gear" xmlns="http://www.w3.org/2000/svg"><path d="M42.617 17.758h-2.044a16.042 16.042 0 0 0-1.562-3.773l1.445-1.444c.321-.322.499-.75.499-1.205 0-.454-.178-.882-.5-1.204l-3.589-3.59a1.692 1.692 0 0 0-1.204-.498c-.455 0-.883.177-1.204.498l-1.445 1.445a16.037 16.037 0 0 0-3.773-1.562V4.38c0-.939-.764-1.703-1.703-1.703H22.46c-.939 0-1.703.764-1.703 1.703v2.05a16.04 16.04 0 0 0-3.766 1.564l-1.452-1.451a1.692 1.692 0 0 0-1.204-.5 1.69 1.69 0 0 0-1.204.5l-3.59 3.59c-.321.32-.499.749-.499 1.204 0 .454.178.882.5 1.204l1.456 1.456a16.036 16.036 0 0 0-1.556 3.762H7.38c-.94 0-1.703.764-1.703 1.703v5.076c0 .94.764 1.703 1.703 1.703h2.068a16.04 16.04 0 0 0 1.556 3.755l-1.463 1.463c-.321.322-.499.75-.499 1.204 0 .455.178.883.5 1.205l3.589 3.59c.321.32.75.498 1.204.498.455 0 .883-.177 1.204-.499l1.464-1.463c1.18.676 2.442 1.2 3.754 1.557v2.068c0 .939.764 1.703 1.703 1.703h5.077c.939 0 1.703-.764 1.703-1.703v-2.063A16.042 16.042 0 0 0 33 36.001l1.457 1.456c.321.322.749.5 1.204.5a1.69 1.69 0 0 0 1.204-.5l3.59-3.59c.321-.321.498-.749.498-1.204 0-.455-.177-.882-.498-1.204l-1.452-1.451a16.046 16.046 0 0 0 1.564-3.767h2.05c.938 0 1.702-.764 1.702-1.703v-5.076c0-.94-.764-1.704-1.703-1.704zm-.21 6.57h-2a1.7 1.7 0 0 0-1.646 1.268 14.136 14.136 0 0 1-1.49 3.587 1.7 1.7 0 0 0 .266 2.063l1.418 1.417-3.293 3.293-1.423-1.422a1.7 1.7 0 0 0-2.06-.267 14.13 14.13 0 0 1-3.583 1.48 1.7 1.7 0 0 0-1.27 1.647v2.015H22.67v-2.02a1.7 1.7 0 0 0-1.268-1.646 14.134 14.134 0 0 1-3.576-1.483 1.7 1.7 0 0 0-2.062.267l-1.43 1.43-3.292-3.294 1.43-1.429a1.7 1.7 0 0 0 .266-2.062 14.126 14.126 0 0 1-1.483-3.576 1.7 1.7 0 0 0-1.646-1.268h-2.02v-4.657h2.015a1.7 1.7 0 0 0 1.647-1.27c.326-1.255.825-2.46 1.48-3.581a1.7 1.7 0 0 0-.267-2.061l-1.422-1.423 3.293-3.292 1.417 1.417a1.7 1.7 0 0 0 2.063.266 14.124 14.124 0 0 1 3.587-1.49 1.7 1.7 0 0 0 1.268-1.646v-2h4.657v1.996a1.7 1.7 0 0 0 1.27 1.646c1.26.328 2.468.828 3.592 1.488.667.39 1.515.28 2.063-.267l1.41-1.41 3.293 3.293-1.41 1.41a1.7 1.7 0 0 0-.267 2.062 14.128 14.128 0 0 1 1.487 3.593 1.7 1.7 0 0 0 1.647 1.27h1.995v4.656z"/><path d="M22.858 18.065h4.285c.59 0 1.07.442 1.07.984h2.143c0-1.627-1.442-2.952-3.213-2.952H26.07v-.984h-2.14v.984h-1.071c-1.772 0-3.214 1.325-3.214 2.952v.983c0 1.627 1.442 2.952 3.214 2.952h4.285c.59 0 1.07.44 1.07.983v.984c0 .543-.48.984-1.07.984h-4.285c-.591 0-1.072-.44-1.072-.984h-2.142c0 1.627 1.442 2.952 3.214 2.952h1.07v.983h2.143v-.983h1.072c1.771 0 3.213-1.325 3.213-2.952v-.983c0-1.628-1.442-2.952-3.213-2.952h-4.285c-.591 0-1.072-.442-1.072-.984v-.983c0-.542.48-.984 1.072-.984z"/><path d="M24.77 33.477a11.27 11.27 0 0 0 7.117-2.54l-1.297-1.582a9.215 9.215 0 0 1-5.82 2.078c-5.075 0-9.202-4.128-9.202-9.202a9.22 9.22 0 0 1 2.078-5.822l-1.582-1.295a11.27 11.27 0 0 0-2.541 7.117c0 6.2 5.046 11.246 11.247 11.246zm.46-20.909c5.075 0 9.203 4.128 9.203 9.201a9.215 9.215 0 0 1-2.078 5.821l1.582 1.297a11.27 11.27 0 0 0 2.54-7.118c0-6.2-5.045-11.246-11.246-11.246-2.588 0-5.115.901-7.117 2.54l1.296 1.582a9.214 9.214 0 0 1 5.82-2.077zM45.85 0a3.64 3.64 0 0 0-3.506 2.678h-4.146a.957.957 0 0 0-.956.957v.956a.957.957 0 0 0 1.913 0h3.19A3.64 3.64 0 0 0 45.85 7.27a3.639 3.639 0 0 0 3.635-3.635A3.64 3.64 0 0 0 45.85 0zm0 5.356a1.723 1.723 0 0 1-1.721-1.721c0-.95.772-1.722 1.721-1.722a1.722 1.722 0 0 1 0 3.443zM11.802 38.42a.957.957 0 0 0-.957.957v.032H7.656A3.64 3.64 0 0 0 4.15 36.73a3.639 3.639 0 0 0-3.635 3.634A3.639 3.639 0 0 0 4.15 44a3.64 3.64 0 0 0 3.506-2.678h4.146a.957.957 0 0 0 .957-.957v-.988a.957.957 0 0 0-.957-.957zM4.15 42.087c-.95 0-1.722-.773-1.722-1.722a1.723 1.723 0 0 1 3.444 0c0 .95-.773 1.722-1.722 1.722z"/></symbol><symbol viewBox="0 0 46 46" id="gears" xmlns="http://www.w3.org/2000/svg"><path d="M37.253.93c-1.813 0-3.58.628-4.997 1.766l-.013.008L6.328 22.05a13.121 13.121 0 0 0-5.513 9.07 1.163 1.163 0 0 0-.053.343v.11a13.313 13.313 0 0 0 0 2.58v.23c0 .148.029.29.08.422a13.121 13.121 0 0 0 2.385 5.825c.053.174.147.337.28.472l.594.602c.251.277.513.543.786.797l.658.666c.144.147.32.247.507.298a12.751 12.751 0 0 0 5.543 2.325c.17.102.368.16.577.16h2.881c.209 0 .406-.057.577-.159a12.711 12.711 0 0 0 5.57-2.334 1.13 1.13 0 0 0 .48-.29l.532-.538c.352-.32.688-.66 1.008-1.022l.498-.505c.13-.132.223-.291.277-.46L43.65 14.041l.011-.017a8.254 8.254 0 0 0 1.64-4.934c0-4.5-3.611-8.16-8.05-8.16zm5.91 5.087c.2.394.363.81.484 1.245l-.29-.057a6.5 6.5 0 0 0-.375-.917l.18-.271zm-2.686-2.814l-.32.22a6.342 6.342 0 0 0-.906-.38l-.076-.4c.457.14.892.329 1.302.56zm-5.146-.56l-.077.4c-.31.102-.613.23-.905.38l-.322-.22c.414-.233.851-.42 1.304-.56zM3.77 26.813l.746 1.12a10.506 10.506 0 0 0-.818 2.001l-1.288.253a11.753 11.753 0 0 1 1.36-3.374zm.043 12.16a11.692 11.692 0 0 1-1.372-3.304l1.257.247c.203.694.477 1.364.818 2.001l-.703 1.056zm3.853 3.875l1.023-.701c.628.346 1.29.623 1.974.83l.233 1.223a11.353 11.353 0 0 1-3.23-1.352zm8.663 1.355l.234-1.227a10.19 10.19 0 0 0 1.974-.83l1.03.706a11.32 11.32 0 0 1-3.238 1.35zm7.113-5.186l-.733-1.1a10.5 10.5 0 0 0 .819-2.001l2.01-.395c.537-.105.925-.583.925-1.136v-2.92c0-.553-.389-1.031-.924-1.136l-2.012-.395a10.5 10.5 0 0 0-.818-2.001l1.148-1.722a1.17 1.17 0 0 0-.14-1.465l-2.036-2.066a1.131 1.131 0 0 0-1.446-.14l-1.698 1.163a10.195 10.195 0 0 0-2.41-.95.702.702 0 0 0-.851.518.712.712 0 0 0 .51.863 8.81 8.81 0 0 1 2.421 1.017.694.694 0 0 0 .754-.02l1.88-1.289 1.731 1.755-1.27 1.906a.72.72 0 0 0-.02.764c.452.765.79 1.59 1.003 2.454.066.269.28.474.547.527l2.227.437v2.48l-2.227.438a.706.706 0 0 0-.547.526 9.07 9.07 0 0 1-1.004 2.454.72.72 0 0 0 .02.765l1.246 1.868c-.112.14-.226.277-.343.41l-.948.962c-.15.134-.301.265-.456.391l-1.839-1.26a.694.694 0 0 0-.754-.02 8.808 8.808 0 0 1-2.42 1.017.708.708 0 0 0-.52.556l-.418 2.19a11.523 11.523 0 0 1-2.473 0l-.418-2.19a.708.708 0 0 0-.519-.555 8.812 8.812 0 0 1-2.42-1.017.695.695 0 0 0-.755.02l-1.83 1.254c-.19-.154-.376-.313-.556-.48l-.782-.791a14.91 14.91 0 0 1-.415-.49l1.243-1.865a.72.72 0 0 0 .02-.765 9.067 9.067 0 0 1-1.003-2.454.706.706 0 0 0-.548-.526l-2.217-.436-.01-.083v-2.4l2.227-.436a.706.706 0 0 0 .548-.527 9.054 9.054 0 0 1 1.003-2.454.72.72 0 0 0-.02-.764l-1.27-1.906 1.73-1.755 1.88 1.288c.226.155.52.163.754.02a8.81 8.81 0 0 1 2.42-1.016.708.708 0 0 0 .52-.555l.431-2.258h2.484c.145.258.44.407.744.347a.711.711 0 0 0 .556-.833 1.147 1.147 0 0 0-1.12-.937h-2.88c-.546 0-1.017.394-1.121.937l-.39 2.039c-.684.206-1.345.484-1.974.83l-1.15-.789 23.416-17.48.57.854a6.524 6.524 0 0 0-.376.917l-1.026.202a.974.974 0 0 0-.78.958v1.733c0 .466.328.869.78.958l1.026.201c.102.315.227.622.375.918l-.585.878a.987.987 0 0 0 .117 1.236l1.209 1.225c.325.33.838.38 1.219.119l.866-.593c.292.15.595.277.906.38l.198 1.04c.087.458.485.79.945.79h1.71c.46 0 .857-.332.944-.79l.199-1.04c.31-.103.613-.23.905-.38l.666.456-17.38 23.52zm19.64-26.692l-.1-.15c.148-.295.274-.602.376-.917l.197-.039a6.803 6.803 0 0 1-.474 1.105zm-.413-2.382a.706.706 0 0 0-.547.527c-.12.484-.31.948-.564 1.377a.72.72 0 0 0 .02.765l.622.933-.693.703-.92-.63a.694.694 0 0 0-.755-.02c-.424.257-.88.449-1.359.57a.707.707 0 0 0-.519.555l-.21 1.106h-.982l-.21-1.106a.707.707 0 0 0-.52-.555 4.947 4.947 0 0 1-1.358-.57.694.694 0 0 0-.755.02l-.92.63-.694-.703.622-.933a.72.72 0 0 0 .02-.765 5.093 5.093 0 0 1-.563-1.377.706.706 0 0 0-.548-.527l-1.09-.213v-.995l1.09-.214a.706.706 0 0 0 .548-.526 5.09 5.09 0 0 1 .563-1.377.72.72 0 0 0-.02-.765l-.622-.933.694-.704.92.63c.226.156.52.164.755.021.423-.258.88-.45 1.358-.57a.708.708 0 0 0 .52-.556l.21-1.105h.981l.211 1.105a.707.707 0 0 0 .52.555c.478.121.934.313 1.358.571a.694.694 0 0 0 .754-.02l.92-.63.694.703-.621.933a.72.72 0 0 0-.02.765c.254.429.443.892.563 1.377.066.268.28.473.547.526l1.09.214v.995l-1.09.213z"/></symbol><symbol viewBox="0 0 33 32" id="inst" xmlns="http://www.w3.org/2000/svg"><path fill-rule="evenodd" clip-rule="evenodd" d="M16.75 0C7.946 0 .81 6.95.81 15.522c0 8.573 7.136 15.523 15.94 15.523 8.803 0 15.94-6.95 15.94-15.523C32.69 6.95 25.554 0 16.75 0zm-3.505 7.294c.907-.04 1.197-.05 3.506-.05h-.003c2.31 0 2.598.01 3.505.05.905.04 1.523.18 2.065.384.56.212 1.033.494 1.506.955.473.46.763.922.981 1.467.209.526.352 1.127.395 2.009.04.883.051 1.165.051 3.413 0 2.249-.01 2.53-.051 3.413-.043.881-.186 1.483-.395 2.01a4.055 4.055 0 0 1-.981 1.466 4.17 4.17 0 0 1-1.505.955c-.541.205-1.16.345-2.065.385-.907.04-1.195.05-3.505.05-2.308 0-2.598-.01-3.505-.05-.905-.04-1.522-.18-2.063-.385a4.175 4.175 0 0 1-1.506-.955 4.047 4.047 0 0 1-.98-1.467c-.21-.526-.354-1.128-.395-2.009-.041-.883-.052-1.164-.052-3.413 0-2.248.01-2.53.051-3.413.041-.881.185-1.483.395-2.01a4.055 4.055 0 0 1 .982-1.466c.472-.46.947-.743 1.506-.955.54-.204 1.158-.344 2.063-.384z"/><path fill-rule="evenodd" clip-rule="evenodd" d="M15.988 8.735h.763c2.27 0 2.539.008 3.435.048.829.037 1.279.172 1.579.285.396.15.68.33.977.62.297.29.481.565.636.951.116.292.255.73.293 1.537.04.873.05 1.135.05 3.344 0 2.21-.01 2.472-.05 3.345-.038.807-.177 1.245-.293 1.536a2.556 2.556 0 0 1-.636.951c-.298.29-.58.47-.977.62-.3.113-.75.248-1.579.285-.896.04-1.165.048-3.435.048s-2.54-.008-3.436-.048c-.829-.037-1.278-.172-1.578-.286a2.64 2.64 0 0 1-.978-.619 2.562 2.562 0 0 1-.636-.951c-.116-.292-.255-.73-.293-1.537-.04-.873-.049-1.135-.049-3.346 0-2.21.008-2.471.05-3.344.037-.807.176-1.245.292-1.537a2.56 2.56 0 0 1 .636-.952c.298-.29.581-.47.978-.62.3-.113.75-.248 1.578-.285.785-.035 1.089-.045 2.673-.047v.002zm5.3 1.375c-.562 0-1.02.445-1.02.993 0 .549.458.994 1.02.994.564 0 1.021-.445 1.021-.994 0-.548-.457-.993-1.02-.993zm-8.903 5.413c0-2.348 1.955-4.252 4.366-4.252 2.41 0 4.365 1.904 4.365 4.252 0 2.347-1.954 4.25-4.365 4.25-2.411 0-4.366-1.903-4.366-4.25z"/><path fill-rule="evenodd" clip-rule="evenodd" d="M16.75 12.763c1.565 0 2.834 1.236 2.834 2.76 0 1.524-1.269 2.76-2.834 2.76-1.565 0-2.834-1.236-2.834-2.76 0-1.524 1.27-2.76 2.834-2.76z"/></symbol><symbol viewBox="0 0 11 9" id="list-mark" xmlns="http://www.w3.org/2000/svg"><path fill-rule="evenodd" clip-rule="evenodd" d="M3.707 5.293L9 0l1.414 1.414-6.707 6.707L0 4.414 1.414 3l2.293 2.293z"/></symbol><symbol viewBox="0 0 47 41" id="monitor" xmlns="http://www.w3.org/2000/svg"><path d="M44.08.952H3.065C1.475.952.183 2.262.183 3.874v28.215c0 1.612 1.293 2.923 2.882 2.923h13.872l-.561 4.55h-2.325a.69.69 0 0 0-.685.695.69.69 0 0 0 .685.695h19.043a.69.69 0 0 0 .685-.695.69.69 0 0 0-.685-.695h-2.325l-.56-4.55H44.08c1.59 0 2.883-1.311 2.883-2.923V3.874c0-1.611-1.294-2.922-2.883-2.922zm-26.323 38.61l.561-4.55h2.522l.248 1.003a2.565 2.565 0 0 0 2.485 1.967c1.177 0 2.199-.81 2.485-1.967l.247-1.003h2.522l.561 4.55h-11.63zm4.496-4.55h2.64l-.165.666a1.192 1.192 0 0 1-1.155.914 1.192 1.192 0 0 1-1.156-.914l-.164-.666zm23.34-2.923c0 .846-.68 1.533-1.513 1.533H3.065a1.524 1.524 0 0 1-1.512-1.533V3.874c0-.845.678-1.533 1.512-1.533H44.08c.834 0 1.512.688 1.512 1.533v28.215z"/><path d="M38.953 3.922H3.798a.69.69 0 0 0-.686.695v26.73a.69.69 0 0 0 .686.695h1.464a.69.69 0 0 0 .686-.695.69.69 0 0 0-.685-.695h-.78V5.312h34.47a.69.69 0 0 0 .685-.695.69.69 0 0 0-.685-.695zm4.395 0h-1.465a.69.69 0 0 0-.685.695.69.69 0 0 0 .685.694h.78v25.341H8.193a.69.69 0 0 0-.686.695.69.69 0 0 0 .685.695h35.156a.69.69 0 0 0 .685-.695V4.617a.69.69 0 0 0-.685-.695z"/><path d="M32.901 11.613a.682.682 0 0 0-.508-.265l-16.113-.743h-.038a1.438 1.438 0 0 0-.57-.778L13.7 8.493a.68.68 0 0 0-.95.193.7.7 0 0 0 .19.963l1.973 1.334a.05.05 0 0 1 .02.027l2.513 8.918c.078.278.207.528.373.744l-.92 1.864a1.445 1.445 0 0 0 .414 1.79c-.18.32-.284.688-.284 1.08 0 1.203.965 2.18 2.15 2.18 1.186 0 2.15-.978 2.15-2.18 0-.278-.052-.544-.146-.79h6.247a2.193 2.193 0 0 0-.147.79c0 1.203.965 2.18 2.15 2.18 1.186 0 2.15-.978 2.15-2.18a2.19 2.19 0 0 0-.226-.97.696.696 0 0 0-.46-1.21h-12.73c-.01 0-.026 0-.04-.022-.014-.022-.007-.037-.002-.046l.847-1.718a2.125 2.125 0 0 0 .792.054l9.629-1.148a2.891 2.891 0 0 0 2.49-2.33l1.151-5.838a.702.702 0 0 0-.132-.565zm-3.47 13.003c.43 0 .78.355.78.79 0 .437-.35.791-.78.791a.786.786 0 0 1-.779-.79c0-.436.35-.79.78-.79zm-10.253 0c.43 0 .78.355.78.79 0 .437-.35.791-.78.791a.786.786 0 0 1-.78-.79c0-.436.35-.79.78-.79zm-1.68-9.557l-.859-3.047 2.74.127.475 2.92h-2.356zm2.105 5.055a.776.776 0 0 1-.84-.568l-.874-3.097h2.19l.576 3.54-1.052.125zm4.017-.479l-1.602.191-.55-3.377h2.152v3.186zm0-4.576h-2.377l-.465-2.856 2.842.131v2.725zm3.47 4.162l-2.1.25V16.45h2.348l-.248 2.772zm.372-4.162H24.99v-2.662l2.698.125-.226 2.537zm3.076 2.685a1.517 1.517 0 0 1-1.306 1.222l-.75.09.232-2.607h2.08l-.256 1.295zm.53-2.685h-2.23l.22-2.474 2.475.114-.466 2.36z"/></symbol><symbol viewBox="0 0 14 24" id="phone" xmlns="http://www.w3.org/2000/svg"><path d="M12.2 0H1.8C.803 0 0 .772 0 1.722v20.193c0 .949.804 1.72 1.8 1.72h10.4c.995 0 1.8-.771 1.8-1.72V1.722C14 .772 13.195 0 12.2 0zM4.434 1.046h5.135c.13 0 .236.185.236.414 0 .229-.106.415-.236.415H4.433c-.13 0-.234-.186-.234-.415 0-.23.104-.414.234-.414zm2.568 20.89c-.633 0-1.149-.493-1.149-1.1 0-.606.516-1.097 1.149-1.097.631 0 1.147.491 1.147 1.097 0 .607-.516 1.1-1.147 1.1zm5.651-3.764H1.35V2.905h11.303v15.268z"/></symbol><symbol viewBox="0 0 64 64" id="ribbon" xmlns="http://www.w3.org/2000/svg"><path d="M23.286 15a1.25 1.25 0 1 0 0-2.501 1.25 1.25 0 0 0 0 2.501z"/><path d="M54.573 22.536a6.585 6.585 0 0 0-3.11-5.587c.296-.758.45-1.568.45-2.395a6.566 6.566 0 0 0-5.424-6.471c-.545-3.077-3.24-5.422-6.47-5.422-.828 0-1.638.153-2.395.45A6.584 6.584 0 0 0 32.036 0a6.583 6.583 0 0 0-5.587 3.11 6.56 6.56 0 0 0-2.395-.449c-1.759 0-3.41.686-4.65 1.93a6.499 6.499 0 0 0-1.814 3.49 6.527 6.527 0 0 0-3.502 1.823 6.527 6.527 0 0 0-1.928 4.65c0 .827.153 1.637.45 2.395a6.584 6.584 0 0 0-3.11 5.587 6.585 6.585 0 0 0 3.11 5.588 6.583 6.583 0 0 0 4.97 8.866 6.534 6.534 0 0 0 3.206 4.555V62.75a1.25 1.25 0 0 0 2.134.884l9.116-9.116 9.116 9.116a1.25 1.25 0 0 0 2.134-.884V41.543a6.48 6.48 0 0 0 3.185-4.548 6.528 6.528 0 0 0 3.506-1.818 6.53 6.53 0 0 0 1.936-4.659 6.56 6.56 0 0 0-.45-2.393 6.584 6.584 0 0 0 3.11-5.589zm-31.287 19.83a6.574 6.574 0 0 0 2.5-.186v15.052l-2.5 2.5V42.367zm7.866 9.5l-2.866 2.866V43.893a6.54 6.54 0 0 0 3.75 1.18c1.37 0 2.672-.43 3.75-1.178v10.837l-2.866-2.866a1.25 1.25 0 0 0-1.768 0zm7.134 5.366V42.18a6.583 6.583 0 0 0 2.5.186v17.366l-2.5-2.5zM49.35 26.38a1.249 1.249 0 0 0-.623 1.875c.45.67.687 1.452.687 2.263a4.043 4.043 0 0 1-1.2 2.886 4.048 4.048 0 0 1-2.874 1.186h-.025a1.25 1.25 0 0 0-1.25 1.261 4.007 4.007 0 0 1-2.502 3.758c-.49.2-1.009.303-1.543.303a4.057 4.057 0 0 1-2.265-.687 1.25 1.25 0 0 0-.589-.204h-.003a1.115 1.115 0 0 0-.098-.005l-.027-.002a1.25 1.25 0 0 0-1.227 1.01 4.082 4.082 0 0 1-3.773 2.549 4.02 4.02 0 0 1-3.804-2.681 1.232 1.232 0 0 0-.211-.407l-.002-.003a1.176 1.176 0 0 0-.079-.09l-.01-.013a1.092 1.092 0 0 0-.076-.069l-.023-.022-.025-.018a1.243 1.243 0 0 0-1.473-.055 4.05 4.05 0 0 1-2.28.697 4.053 4.053 0 0 1-1.544-.302 4.054 4.054 0 0 1-2.529-3.768 1.25 1.25 0 0 0-1.25-1.252 4.076 4.076 0 0 1-4.07-4.072c0-.81.237-1.593.686-2.263a1.25 1.25 0 0 0-.624-1.875 4.076 4.076 0 0 1 0-7.688 1.25 1.25 0 0 0 .624-1.876 4.05 4.05 0 0 1-.687-2.263c0-1.089.425-2.112 1.195-2.88a4.048 4.048 0 0 1 2.878-1.192h.01a1.25 1.25 0 0 0 1.25-1.254 4.024 4.024 0 0 1 1.18-2.872 4.04 4.04 0 0 1 2.88-1.195c.813 0 1.596.237 2.265.686a1.25 1.25 0 0 0 1.875-.624A4.077 4.077 0 0 1 32.036 2.5a4.078 4.078 0 0 1 3.843 2.723 1.25 1.25 0 0 0 1.876.624 4.076 4.076 0 0 1 6.335 3.386c0 .69.56 1.25 1.25 1.25a4.067 4.067 0 0 1 4.072 4.07c0 .811-.237 1.594-.687 2.264a1.251 1.251 0 0 0 .624 1.876 4.076 4.076 0 0 1 0 7.688z"/><path d="M32.036 8.75c-1.764 0-3.484.33-5.113.982a1.25 1.25 0 1 0 .929 2.321 11.213 11.213 0 0 1 4.184-.803c6.204 0 11.25 5.047 11.25 11.25s-5.046 11.25-11.25 11.25c-6.203 0-11.25-5.047-11.25-11.25 0-1.444.27-2.852.803-4.185a1.25 1.25 0 1 0-2.32-.928 13.713 13.713 0 0 0-.983 5.113c0 7.581 6.169 13.75 13.75 13.75 7.582 0 13.75-6.169 13.75-13.75 0-7.582-6.168-13.75-13.75-13.75z"/><path d="M38.286 22.5a1.25 1.25 0 0 0 2.5 0c0-4.825-3.925-8.75-8.75-8.75a1.25 1.25 0 0 0 0 2.5 6.257 6.257 0 0 1 6.25 6.25z"/></symbol><symbol viewBox="0 0 64 64" id="robotic-arm" xmlns="http://www.w3.org/2000/svg"><g clip-path="url(#asa)"><path d="M58.839 49.548h-2.065V28.903H54.71v20.645h-3.097V28.903h-2.065v20.645h-3.096V28.903h-2.065v20.645h-2.064v4.13h-4.13V64h24.775V53.678h-4.13v-4.13zm-14.452 2.065h12.387v2.065H44.387v-2.065zm16.516 4.129v6.194H40.258v-6.194h20.645zM50.58 6.194a7.232 7.232 0 0 0-7.225 7.225 7.233 7.233 0 0 0 7.226 7.226c3.984 0 7.225-3.241 7.225-7.226a7.232 7.232 0 0 0-7.225-7.225zm0 12.387a5.167 5.167 0 0 1-5.16-5.162 5.167 5.167 0 0 1 5.16-5.16 5.167 5.167 0 0 1 5.162 5.16 5.167 5.167 0 0 1-5.161 5.162z"/><path d="M60.546 8.771l-.653 1.958 2.042.682v4.017l-2.506.835-.173.457c-.064.17-.13.337-.204.5l-.2.447 1.18 2.36-2.84 2.841-2.361-1.18-.448.2c-.164.074-.33.14-.5.205l-.455.174-.838 2.507h-4.018l-.836-2.506-.456-.174a8.762 8.762 0 0 1-.5-.204l-.447-.201-2.36 1.18-3.368-3.367-1.46 1.46 4.42 4.42 2.6-1.302.92 2.759h6.992l.92-2.759 2.6 1.301 4.945-4.945-1.3-2.6 2.758-.92V9.923l-3.454-1.152z"/><path d="M40.615 18.067l.654-1.959-2.043-.68v-4.017l2.506-.836.174-.457c.064-.168.13-.336.204-.5l.201-.446-1.18-2.361 2.84-2.84 2.362 1.18.448-.201c.163-.075.33-.14.498-.205l.457-.173.836-2.507h4.017l.837 2.506.456.173c.168.064.335.13.498.205l.448.2 2.362-1.18 3.367 3.367 1.46-1.46-4.42-4.418-2.6 1.3L54.078 0h-6.993l-.92 2.758-2.6-1.3-3.703 3.703H17.548c-3.243 0-5.906 2.507-6.167 5.684L0 20.155v7.716l3.34 12.387h4.918v-2.065h18.58v2.065h4.918l3.305-12.116.036-7.986-5.71-4.672h7.774v1.432l3.454 1.15zM17.548 7.226a4.133 4.133 0 0 1 4.13 4.129 4.133 4.133 0 0 1-4.13 4.129 4.133 4.133 0 0 1-4.129-4.13 4.133 4.133 0 0 1 4.13-4.128zM6.194 23.204v14.99H4.918L2.065 27.733v-6.599l9.6-7.855a6.216 6.216 0 0 0 3.374 3.733l-8.845 6.192zM26.839 36.13H8.259v-2.064h2.701L11.993 32h1.82l1.033 2.065h5.405L21.283 32h1.821l1.032 2.065h2.703v2.064zm0-4.129h-1.427l-1.032-2.064h-4.373L18.975 32h-2.853l-1.032-2.064h-4.373L9.685 32H8.258v-7.72l9.29-6.504 9.29 6.504V32zm6.193-10.866v6.599l-2.853 10.46h-1.276v-14.99l-8.845-6.192a6.221 6.221 0 0 0 3.374-3.733l9.6 7.855zm-6.168-7.715l-3.148-2.574a6.162 6.162 0 0 0-1.564-3.62h16.879l.889 1.778-2.759.92v3.496H26.863zm-1.058 38.193H22.71v-5.161h6.193v-4.13H26.84v2.065H8.259v-2.065H6.193v4.13h6.193v5.16H9.29v4.13H5.161V64h24.774v-8.258h-4.129v-4.13zm-11.354-5.161h6.193v5.16h-6.193v-5.16zm-3.097 7.225h12.387v2.065H11.355v-2.065zm16.516 4.13v4.128H7.226v-4.129H27.87z"/><path d="M18.58 10.322h-2.064v2.065h2.065v-2.065z"/></g><defs><clipPath id="asa"><path d="M0 0h64v64H0z"/></clipPath></defs></symbol><symbol viewBox="0 0 50 50" id="shield" xmlns="http://www.w3.org/2000/svg"><path d="M25 3.907a.974.974 0 0 0-.976.976c0 .502.378.92.878.97a.974.974 0 0 0 1.074-.97.973.973 0 0 0-.976-.976z"/><path d="M44.531 5.86A4.888 4.888 0 0 1 39.648.976.977.977 0 0 0 38.672 0H11.328a.977.977 0 0 0-.976.977 4.888 4.888 0 0 1-4.883 4.882.977.977 0 0 0-.977.977v15.936c0 12.42 8.095 23.549 20.227 27.187a.981.981 0 0 0 .562 0c11.869-3.56 20.227-14.495 20.227-27.187V6.837a.977.977 0 0 0-.977-.977zm-.976 16.912c0 11.665-7.444 21.767-18.555 25.23a26.405 26.405 0 0 1-18.555-25.23V7.744c2.99-.43 5.36-2.8 5.79-5.79h25.53c.43 2.99 2.8 5.36 5.79 5.79v15.03z"/><path d="M41.017 9.032a8.797 8.797 0 0 1-4.541-4.541.977.977 0 0 0-.895-.585h-6.677a.977.977 0 0 0 0 1.953h6.06a10.735 10.735 0 0 0 4.684 4.685v12.229c0 9.556-5.737 17.802-14.648 21.103-8.911-3.3-14.648-11.547-14.648-21.103V10.544a10.736 10.736 0 0 0 4.684-4.685h6.06a.977.977 0 0 0 0-1.953h-6.677a.977.977 0 0 0-.895.585 8.797 8.797 0 0 1-4.54 4.541.977.977 0 0 0-.586.895v12.846c0 10.47 6.476 19.595 16.276 23.063a.976.976 0 0 0 .652 0c9.792-3.466 16.276-12.585 16.276-23.063V9.927a.977.977 0 0 0-.585-.895z"/><path d="M25 14.258c-4.846 0-8.79 3.943-8.79 8.789s3.944 8.789 8.79 8.789c4.846 0 8.79-3.943 8.79-8.79 0-4.845-3.944-8.788-8.79-8.788zm0 15.625a6.844 6.844 0 0 1-6.836-6.836A6.844 6.844 0 0 1 25 16.21a6.844 6.844 0 0 1 6.836 6.836A6.844 6.844 0 0 1 25 29.883z"/><path d="M29.597 20.403a.977.977 0 0 0-1.381 0l-4.193 4.192-1.262-1.262a.977.977 0 0 0-1.381 1.381l1.953 1.953a.975.975 0 0 0 1.381 0l4.883-4.883a.977.977 0 0 0 0-1.38z"/></symbol><symbol viewBox="0 0 35 36" id="stopwatch" xmlns="http://www.w3.org/2000/svg"><path d="M18.698 22.793a2.135 2.135 0 0 0 1.563-.875l5.618-7.766a.6.6 0 0 0-.838-.839l-7.768 5.62a2.136 2.136 0 0 0 1.424 3.86zm-1.102-2.204a.936.936 0 0 1 .382-.685l4.738-3.428-3.426 4.737a.939.939 0 0 1-1.694-.624z"/><path d="M32.138 11.738c-.006-.012-.006-.025-.013-.038-.007-.012-.019-.019-.026-.03a16.311 16.311 0 0 0-2.14-2.885l1.29-1.289.848.849 2.545-2.546-2.545-2.545-2.546 2.545.849.849-1.289 1.288a16.292 16.292 0 0 0-2.885-2.14c-.012-.007-.018-.019-.03-.026-.013-.007-.026-.006-.039-.013a16.086 16.086 0 0 0-6.163-2.042V3h.9c.827 0 1.5-.673 1.5-1.5S21.72 0 20.893 0h-5.4c-.827 0-1.5.673-1.5 1.5s.673 1.5 1.5 1.5h.9v.694c-.648.069-1.295.174-1.934.32a.6.6 0 1 0 .268 1.17 15.14 15.14 0 0 1 1.668-.286l.644-.05c.196-.015.378-.026.554-.034V6a.6.6 0 1 0 1.2 0V4.818a14.89 14.89 0 0 1 6.274 1.707l-.592 1.024a.6.6 0 0 0 1.04.6l.589-1.022a15.116 15.116 0 0 1 4.663 4.664l-1.022.59a.6.6 0 0 0 .602 1.039l1.024-.592a14.892 14.892 0 0 1 1.71 6.371h-1.186a.6.6 0 1 0 0 1.2h1.185a14.892 14.892 0 0 1-1.71 6.372l-1.023-.592a.6.6 0 1 0-.6 1.04l1.021.59a15.116 15.116 0 0 1-4.663 4.662l-.59-1.021a.6.6 0 1 0-1.039.6l.592 1.024a14.883 14.883 0 0 1-6.274 1.707V33.6a.6.6 0 1 0-1.2 0v1.186a15.14 15.14 0 0 1-2.865-.37.6.6 0 1 0-.268 1.17c1.197.275 2.42.414 3.634.414l.087-.002.011.002c.005 0 .009-.003.014-.003 2.884-.02 5.59-.799 7.931-2.144.019-.008.039-.012.057-.023.012-.007.018-.019.03-.027a16.318 16.318 0 0 0 5.863-5.856c.012-.016.026-.029.036-.047.008-.013.007-.026.013-.038a16.085 16.085 0 0 0 2.158-8.062 16.09 16.09 0 0 0-2.157-8.062zm-.042-6.787l.849.848-.849.849-.849-.849.85-.848zM17.593 3.613V1.8h-2.1a.3.3 0 0 1-.3-.3.3.3 0 0 1 .3-.3h5.4a.3.3 0 0 1 .3.3.3.3 0 0 1-.3.3h-2.1v1.813a14.917 14.917 0 0 0-.6-.013l-.053.001-.045-.001c-.098 0-.197.007-.295.008-.07.002-.135.002-.207.005zm-4.8 4.787h-3a.6.6 0 1 0 0 1.2h3a.6.6 0 1 0 0-1.2zm0 4.2h-6a.6.6 0 1 0 0 1.2h6a.6.6 0 1 0 0-1.2zm0 4.2h-9a.6.6 0 1 0 0 1.2h9a.6.6 0 1 0 0-1.2zm0 4.2h-11.4a.6.6 0 1 0 0 1.2h11.4a.6.6 0 1 0 0-1.2zm0 4.2h-7.8a.6.6 0 1 0 0 1.2h7.8a.6.6 0 1 0 0-1.2zm0 4.2h-4.2a.6.6 0 1 0 0 1.2h4.2a.6.6 0 1 0 0-1.2z"/></symbol><symbol viewBox="0 0 31 30" id="telgr" xmlns="http://www.w3.org/2000/svg"><path fill-rule="evenodd" clip-rule="evenodd" d="M30.808 15c0 8.284-6.897 15-15.404 15S0 23.284 0 15C0 6.716 6.897 0 15.404 0s15.404 6.716 15.404 15zm-17.966 3.051l-.262 3.824c.374 0 .545-.162.752-.359l.018-.016 1.85-1.752 3.85 2.77c.708.38 1.219.183 1.395-.641l2.527-11.595c.259-1.01-.395-1.469-1.073-1.169L7.061 14.684c-1.012.396-1.007.946-.184 1.191l3.808 1.158 8.815-5.416c.416-.246.798-.114.484.157l-7.142 6.277z"/></symbol><symbol viewBox="0 0 30 50" id="termometr" xmlns="http://www.w3.org/2000/svg"><path d="M29.273 6.362v2.13h-8.258v-2.13h8.258zm-3.463 4.644h-4.795v2.13h4.795v-2.13zm-4.795 6.775h8.258v-2.13h-8.258v2.13zm4.795 2.515h-4.795v2.13h4.795v-2.13zm-4.795 6.775h8.258V24.94h-8.258v2.13zm1.287 12.141C22.302 45.161 17.463 50 11.515 50S.727 45.16.727 39.212c0-3.854 2.025-7.358 5.327-9.296V5.46c0-3.01 2.45-5.46 5.46-5.46a5.467 5.467 0 0 1 5.461 5.46v24.457a10.732 10.732 0 0 1 5.327 9.295zm-2.13 0a8.618 8.618 0 0 0-4.745-7.713l-.583-.297V5.462a3.333 3.333 0 0 0-3.33-3.33 3.333 3.333 0 0 0-3.329 3.33v25.74l-.582.297a8.62 8.62 0 0 0-4.745 7.713c0 4.773 3.884 8.657 8.657 8.657s8.657-3.883 8.657-8.657zm-1.775 0a6.889 6.889 0 0 1-6.882 6.881 6.888 6.888 0 0 1-6.88-6.88 6.88 6.88 0 0 1 5.109-6.641l.395-.106V19.324h2.752v13.141l.396.107a6.88 6.88 0 0 1 5.11 6.64zm-6.541-4.586a1.377 1.377 0 0 0-1.644-1.038 5.657 5.657 0 0 0-4.43 5.548c0 .757.617 1.374 1.374 1.374.758 0 1.375-.617 1.375-1.374 0-1.36.96-2.567 2.287-2.866a1.381 1.381 0 0 0 1.038-1.644z"/></symbol><symbol viewBox="0 0 8 6" id="triangle-down" xmlns="http://www.w3.org/2000/svg"><path d="M4.323 6L7.878.75H.768L4.324 6z"/></symbol><symbol viewBox="0 0 64 64" id="trolley" xmlns="http://www.w3.org/2000/svg"><g clip-path="url(#aya)"><path d="M14.5 51.5a3.754 3.754 0 0 0-3.75 3.75A3.754 3.754 0 0 0 14.5 59a3.754 3.754 0 0 0 3.75-3.75 3.754 3.754 0 0 0-3.75-3.75zm0 5a1.251 1.251 0 0 1 0-2.5 1.251 1.251 0 0 1 0 2.5z"/><path d="M60.25 51.5h-2v-27c0-.69-.56-1.25-1.25-1.25h-6.25v-17c0-.69-.56-1.25-1.25-1.25h-25c-.69 0-1.25.56-1.25 1.25V51.5h-.843a8.697 8.697 0 0 0-4.157-4.157V3.75A3.754 3.754 0 0 0 14.5 0H3.75A3.754 3.754 0 0 0 0 3.75 3.754 3.754 0 0 0 3.75 7.5h7v39.843a8.768 8.768 0 0 0-5 7.907c0 4.825 3.925 8.75 8.75 8.75a8.769 8.769 0 0 0 7.907-5H60.25A3.754 3.754 0 0 0 64 55.25a3.754 3.754 0 0 0-3.75-3.75zm-4.5 0h-30V25.75h8.75V39a1.25 1.25 0 0 0 2 1l4.25-3.188L45 40a1.25 1.25 0 0 0 2-1V25.75h8.75V51.5zM37 25.75h7.5V36.5l-3-2.25a1.25 1.25 0 0 0-1.5 0l-3 2.25V25.75zM34.5 7.5h5v7.164l-1.807-1.204a1.247 1.247 0 0 0-1.386 0L34.5 14.664V7.5zm-2.5 0V17a1.25 1.25 0 0 0 1.943 1.04L37 16.002l3.057 2.038A1.25 1.25 0 0 0 42 17V7.5h6.25v15.75h-22.5V7.5H32zM3.75 5a1.251 1.251 0 0 1 0-2.5H14.5c.69 0 1.25.56 1.25 1.25v42.84a8.798 8.798 0 0 0-2.5 0V6.25C13.25 5.56 12.69 5 12 5H3.75zM14.5 61.5a6.257 6.257 0 0 1-6.25-6.25c0-3.41 2.758-6.25 6.25-6.25 3.491 0 6.25 2.844 6.25 6.25 0 3.492-2.84 6.25-6.25 6.25zm45.75-5H23.16a8.798 8.798 0 0 0 0-2.5h37.09a1.251 1.251 0 0 1 0 2.5z"/><path d="M52 49c.69 0 1.25-.56 1.25-1.25v-2.5a1.25 1.25 0 1 0-2.5 0v2.5c0 .69.56 1.25 1.25 1.25zm0-10a1.25 1.25 0 1 1-.001 2.501A1.25 1.25 0 0 1 52 39zm-5 5c-.69 0-1.25.56-1.25 1.25v2.5a1.25 1.25 0 1 0 2.5 0v-2.5c0-.69-.56-1.25-1.25-1.25z"/></g><defs><clipPath id="aya"><path d="M0 0h64v64H0z"/></clipPath></defs></symbol><symbol viewBox="0 0 32 30" id="viber" xmlns="http://www.w3.org/2000/svg"><path fill-rule="evenodd" clip-rule="evenodd" d="M15.75 0c8.507 0 15.404 6.716 15.404 15 0 8.284-6.897 15-15.404 15S.346 23.284.346 15c0-8.284 6.897-15 15.404-15zm.922 6.11a8.663 8.663 0 0 1 2.823.814c.913.436 1.498.847 2.271 1.596.725.708 1.127 1.243 1.553 2.075.594 1.16.932 2.54.99 4.06.021.517.006.633-.116.78-.231.288-.74.24-.913-.082-.055-.107-.07-.199-.089-.613a10.453 10.453 0 0 0-.167-1.54c-.36-1.927-1.31-3.466-2.826-4.57-1.263-.924-2.57-1.374-4.28-1.472-.58-.032-.68-.053-.81-.15-.244-.187-.256-.625-.022-.83.143-.127.244-.145.74-.13.259.009.64.039.846.062zm-6.96.32c.107.035.271.118.366.177.578.373 2.189 2.377 2.716 3.378.301.571.401.995.307 1.309-.097.337-.259.515-.98 1.08-.29.228-.56.462-.603.524-.11.154-.198.456-.198.67.003.494.332 1.39.764 2.08.335.536.935 1.223 1.529 1.75.697.622 1.312 1.045 2.006 1.38.892.432 1.437.541 1.836.36.1-.044.207-.103.24-.13.031-.026.265-.305.521-.612.493-.604.606-.702.944-.815.43-.142.868-.103 1.31.116.334.169 1.065.61 1.537.93.621.423 1.948 1.477 2.128 1.687.317.379.372.864.159 1.4-.226.566-1.103 1.626-1.715 2.079-.554.408-.947.565-1.464.589-.426.02-.603-.015-1.148-.234-4.275-1.714-7.688-4.272-10.398-7.786-1.416-1.836-2.493-3.74-3.23-5.714-.43-1.151-.45-1.652-.098-2.24.153-.25.801-.865 1.273-1.209.786-.568 1.148-.778 1.437-.837.198-.042.542-.01.761.068zm7.17 1.826c1.849.264 3.28 1.099 4.218 2.454.526.764.855 1.661.968 2.623.04.353.04.995-.003 1.102a.68.68 0 0 1-.277.293c-.119.059-.372.053-.512-.018-.234-.116-.304-.3-.304-.796 0-.767-.204-1.575-.557-2.203a4.559 4.559 0 0 0-1.7-1.72c-.611-.355-1.516-.619-2.34-.684-.3-.024-.464-.083-.576-.21a.528.528 0 0 1-.046-.67c.158-.239.402-.277 1.13-.17zm.65 2.236c.599.124 1.059.346 1.451.704.506.465.783 1.027.905 1.835.082.527.048.735-.143.906-.18.16-.512.166-.713.015-.146-.106-.192-.219-.225-.524-.04-.405-.113-.69-.237-.953-.268-.56-.74-.85-1.538-.944-.375-.045-.487-.086-.61-.225a.543.543 0 0 1 .171-.83c.116-.056.165-.062.42-.047.159.01.393.036.518.063z"/></symbol><symbol viewBox="0 0 32 32" id="vk" xmlns="http://www.w3.org/2000/svg"><path fill-rule="evenodd" clip-rule="evenodd" d="M15.94 0C7.137 0 0 6.95 0 15.522c0 8.573 7.137 15.523 15.94 15.523 8.804 0 15.94-6.95 15.94-15.523C31.88 6.95 24.745 0 15.94 0zm1.298 20.423c-.157.161-.464.194-.464.194h-1.016s-2.242.128-4.217-1.837c-2.154-2.143-4.056-6.397-4.056-6.397s-.11-.28.01-.413c.133-.152.498-.162.498-.162l2.43-.015s.228.036.392.151a.73.73 0 0 1 .211.273s.393.949.912 1.807c1.016 1.677 1.488 2.043 1.832 1.864.503-.262.352-2.37.352-2.37s.01-.765-.253-1.106c-.203-.264-.585-.34-.754-.362-.137-.018.087-.321.378-.457.438-.204 1.21-.216 2.122-.208.71.007.915.05 1.193.114.645.149.625.625.581 1.654-.013.307-.028.664-.028 1.076 0 .093-.003.192-.006.294-.015.526-.032 1.13.331 1.354.187.115.642.017 1.78-1.83.54-.876.944-1.906.944-1.906s.089-.183.226-.262c.14-.08.33-.056.33-.056l2.557-.015s.768-.088.892.244c.13.348-.287 1.16-1.331 2.49-.99 1.261-1.472 1.727-1.43 2.138.032.3.346.572.948 1.107 1.256 1.114 1.592 1.7 1.673 1.841l.015.026c.563.893-.624.963-.624.963l-2.271.03s-.488.092-1.13-.33c-.336-.22-.665-.58-.978-.923-.478-.524-.92-1.008-1.296-.893-.633.192-.614 1.495-.614 1.495s.005.279-.139.427z"/></symbol><symbol viewBox="0 0 32 30" id="whatsApp" xmlns="http://www.w3.org/2000/svg"><path fill-rule="evenodd" clip-rule="evenodd" d="M31.5 15c0 8.284-6.896 15-15.404 15C7.59 30 .692 23.284.692 15c0-8.284 6.897-15 15.404-15C24.604 0 31.5 6.716 31.5 15zm-14.9 8.345h.004c5.05-.002 9.158-4.002 9.16-8.92 0-2.382-.951-4.623-2.68-6.31-1.73-1.685-4.03-2.614-6.48-2.615-5.049 0-9.158 4.001-9.16 8.919 0 1.572.421 3.106 1.223 4.459l-1.3 4.622 4.856-1.24a9.346 9.346 0 0 0 4.377 1.085z"/><path fill-rule="evenodd" clip-rule="evenodd" d="M12.726 20.806l-.278-.16-2.881.735.769-2.735-.181-.28A7.254 7.254 0 0 1 8.99 14.42c.001-4.088 3.417-7.413 7.616-7.413 2.034 0 3.945.773 5.382 2.174a7.269 7.269 0 0 1 2.228 5.245c-.002 4.088-3.417 7.413-7.613 7.413H16.6a7.757 7.757 0 0 1-3.875-1.033zm8.18-4.46c.159.075.267.126.313.2.057.094.057.54-.134 1.06-.19.521-1.105.996-1.545 1.06a3.217 3.217 0 0 1-1.441-.088 13.33 13.33 0 0 1-1.305-.47c-2.146-.902-3.596-2.927-3.87-3.31a2.777 2.777 0 0 0-.04-.055l-.002-.002c-.12-.157-.932-1.212-.932-2.303 0-1.027.518-1.565.756-1.812l.045-.047a.851.851 0 0 1 .61-.28c.153 0 .305.002.439.009h.051c.133 0 .3-.001.464.382l.253.598c.196.467.414.982.452 1.057.058.112.096.242.02.39a6.683 6.683 0 0 0-.033.064c-.057.114-.1.198-.197.308a9.39 9.39 0 0 0-.117.138 3.719 3.719 0 0 1-.226.253c-.114.11-.234.232-.1.455.133.223.593.953 1.273 1.543a5.907 5.907 0 0 0 1.69 1.04c.062.027.113.048.15.067.23.111.363.093.496-.056.134-.149.573-.65.725-.874.153-.223.305-.186.515-.111.21.074 1.335.613 1.564.725l.125.06z"/></symbol></svg>