<svg width="52" height="51" viewBox="0 0 52 51" fill="none" xmlns="http://www.w3.org/2000/svg">
<path d="M32.125 29.4736C32.4536 29.4736 32.7764 29.3398 33.0088 29.1074C33.2412 28.875 33.375 28.5527 33.375 28.2236C33.375 27.895 33.2412 27.5723 33.0088 27.3398C32.7764 27.1074 32.4536 26.9736 32.125 26.9736C31.7964 26.9736 31.4736 27.1074 31.2412 27.3398C31.0088 27.5723 30.875 27.895 30.875 28.2236C30.875 28.5527 31.0088 28.875 31.2412 29.1074C31.4736 29.3398 31.7964 29.4736 32.125 29.4736Z" fill="#67D43D"/>
<path d="M26.5659 31.959C26.8965 31.959 27.2173 31.8252 27.4512 31.5923C27.6836 31.3599 27.8159 31.0376 27.8159 30.709C27.8159 30.3789 27.6836 30.0576 27.4512 29.8252C27.2173 29.5913 26.8965 29.459 26.5659 29.459C26.2373 29.459 25.916 29.5913 25.6836 29.8252C25.4497 30.0576 25.3159 30.3789 25.3159 30.709C25.3159 31.0376 25.4497 31.3599 25.6836 31.5923C25.916 31.8252 26.2373 31.959 26.5659 31.959Z" fill="#67D43D"/>
<path d="M32.061 32.9526C31.8286 33.1851 31.6948 33.5073 31.6948 33.8364C31.6948 34.165 31.8286 34.4873 32.061 34.7202C32.2949 34.9526 32.6162 35.0864 32.9448 35.0864C33.2749 35.0864 33.5962 34.9526 33.8301 34.7202C34.0625 34.4873 34.1948 34.165 34.1948 33.8364C34.1948 33.5073 34.0625 33.1851 33.8301 32.9526C33.5962 32.7202 33.2749 32.5864 32.9448 32.5864C32.6162 32.5864 32.2939 32.7202 32.061 32.9526Z" fill="#67D43D"/>
<path d="M21.4814 15.7319C18.8623 15.7319 16.7314 17.8628 16.7314 20.4819C16.7314 23.1011 18.8623 25.2319 21.4814 25.2319C24.1006 25.2319 26.2314 23.1011 26.2314 20.4819C26.2314 17.8628 24.1006 15.7319 21.4814 15.7319ZM21.4814 22.7319C20.2407 22.7319 19.2314 21.7227 19.2314 20.4819C19.2314 19.2412 20.2407 18.2319 21.4814 18.2319C22.7217 18.2319 23.7314 19.2412 23.7314 20.4819C23.7314 21.7227 22.7217 22.7319 21.4814 22.7319Z" fill="#67D43D"/>
<path d="M38.4209 6.1865C38.6294 6.32029 38.8628 6.38425 39.0937 6.38425C39.4971 6.38425 39.8926 6.18943 40.1333 5.82956C40.5171 5.25632 40.3642 4.48142 39.7925 4.09665C39.77 4.08152 39.7461 4.06638 39.7226 4.0532C39.1265 3.70505 38.3608 3.90671 38.0132 4.5029C37.6738 5.08494 37.8574 5.8281 38.4209 6.1865Z" fill="#67D43D"/>
<path d="M4.13281 37.875C4.15039 37.9048 4.17041 37.9321 4.18994 37.96C8.57422 45.4546 16.7085 50.5 26 50.5C39.9229 50.5 51.25 39.1729 51.25 25.25C51.25 18.5083 48.6255 12.1689 43.8594 7.40039C43.3716 6.91211 42.5801 6.91211 42.0918 7.3999C41.6035 7.88818 41.603 8.67969 42.0913 9.16797C43.2129 10.29 44.2017 11.5098 45.0522 12.8066L33.3501 19.5635C32.4302 18.7769 31.5762 17.9165 30.7974 16.9937L31.9878 15.5693C32.4307 15.0396 32.3599 14.2515 31.8301 13.8086C31.3003 13.3662 30.5122 13.4365 30.0693 13.9663L29.2563 14.939C29.1499 14.7788 29.0449 14.6177 28.9434 14.4541C28.4194 13.6147 27.7803 12.8779 27.0581 12.252L27.7222 10.646C27.9858 10.0078 27.6826 9.27686 27.0444 9.01318C26.4067 8.74902 25.6758 9.05225 25.4116 9.69043L24.9326 10.8496C23.9326 10.3613 22.8525 10.042 21.7402 9.91064V9.24658C21.7402 8.55615 21.1807 7.99658 20.4902 7.99658C19.8003 7.99658 19.2402 8.55615 19.2402 9.24658V9.93555C18.7529 10.0024 18.2661 10.105 17.7837 10.248L18.1387 11.4463L17.7837 10.248C17.2358 10.4102 16.71 10.6162 16.2095 10.8623L15.8291 10.0122C15.5479 9.38184 14.8086 9.09961 14.1782 9.38135C13.5479 9.66309 13.2651 10.4023 13.5469 11.0327L14.0967 12.2627C13.1445 13.0898 12.356 14.1011 11.7739 15.2534L10.667 14.6841C10.0532 14.3682 9.29932 14.6099 8.98389 15.2236C8.66797 15.8379 8.90967 16.5913 9.52344 16.9072L10.9268 17.6284C10.5752 19.2246 10.6294 20.8608 11.0757 22.4102L10.0117 22.9497C9.396 23.2617 9.1499 24.0142 9.4624 24.6299C9.68262 25.0645 10.1221 25.3149 10.5781 25.3149C10.7686 25.3149 10.9614 25.2715 11.1426 25.1797L12.0703 24.709C12.1089 24.7744 12.1479 24.8394 12.188 24.9038C12.6123 25.585 13.0581 26.2529 13.522 26.9082L12.3203 27.6172C11.7256 27.9683 11.5283 28.7349 11.8789 29.3291C12.1123 29.7241 12.5288 29.9438 12.957 29.9438C13.1729 29.9438 13.3916 29.8882 13.5908 29.77L15.0371 28.917C15.2607 29.1948 15.4878 29.4702 15.7183 29.7427L5.70557 35.5234C4.13623 32.4355 3.25 28.9443 3.25 25.25C3.25 12.7056 13.4556 2.5 26 2.5C28.8066 2.5 31.5464 3.00488 34.1421 4C34.7871 4.24707 35.5098 3.9248 35.7568 3.28027C36.0039 2.63574 35.6816 1.91309 35.0371 1.66553C32.1543 0.560547 29.1138 0 26 0C12.0771 0 0.75 11.3271 0.75 25.25C0.75 29.8062 1.96338 34.084 4.0835 37.7783C4.09863 37.811 4.11426 37.8433 4.13281 37.875V37.875ZM14.3096 23.5811C13.0923 21.6284 12.8638 19.2705 13.6831 17.1113C14.5088 14.9341 16.2627 13.3062 18.4941 12.645C19.186 12.4399 19.8906 12.3413 20.5869 12.3413C23.0771 12.3413 25.4653 13.603 26.8223 15.7778C27.2334 16.4365 27.6772 17.0747 28.1494 17.6909C28.1772 17.731 28.2075 17.769 28.2397 17.8062C29.0933 18.9072 30.0396 19.937 31.0679 20.8809L17.9199 28.4717C16.5918 26.937 15.3823 25.3018 14.3096 23.5811V23.5811ZM35.3057 24.0146C37.5547 25.3325 38.9517 27.7725 38.9517 30.3828C38.9517 31.6851 38.6016 32.9707 37.939 34.1016C36.9434 35.8003 35.3462 37.0098 33.4409 37.5073C31.5356 38.0044 29.5508 37.7305 27.8521 36.7349C24.8486 34.9751 22.0908 32.8208 19.6592 30.354L33.1299 22.5767C33.8291 23.0928 34.5542 23.5747 35.3057 24.0146V24.0146ZM17.4272 31.6431C18.4219 32.6836 19.4707 33.6743 20.5679 34.6099L19.584 35.7222C19.127 36.2393 19.1753 37.0293 19.6924 37.4868C19.9302 37.6968 20.2261 37.8003 20.52 37.8003C20.8662 37.8003 21.21 37.6577 21.457 37.3779L22.52 36.1763C23.8203 37.1577 25.1787 38.0659 26.5879 38.8921H26.5889L26.2095 40.3066C26.0303 40.9731 26.4258 41.6587 27.0928 41.8379C27.2012 41.8667 27.3101 41.8809 27.4175 41.8809C27.9692 41.8809 28.4741 41.5127 28.624 40.9546L28.9116 39.8823C29.7749 40.126 30.665 40.2505 31.562 40.2505C31.6089 40.2505 31.6562 40.2485 31.7031 40.248L31.9463 41.4932C32.063 42.0898 32.5859 42.5034 33.1719 42.5034C33.2515 42.5034 33.3315 42.4961 33.4126 42.48C34.0903 42.3477 34.5322 41.6914 34.3999 41.0137L34.1812 39.8945C35.396 39.563 36.5151 39.0151 37.4956 38.2817L38.0986 38.8848C38.3428 39.1289 38.6631 39.251 38.9829 39.251C39.3027 39.251 39.6226 39.1289 39.8667 38.8848C40.355 38.397 40.355 37.6055 39.8667 37.1172L39.2896 36.54C39.583 36.1709 39.853 35.7793 40.0957 35.3652C40.814 34.1396 41.2573 32.7773 41.4004 31.3765H41.9043C42.5947 31.3765 43.1543 30.8169 43.1543 30.1265C43.1543 29.436 42.5947 28.8765 41.9043 28.8765H41.334C41.0591 27.1089 40.3081 25.4536 39.1821 24.0879L40.1616 23.3911C40.7241 22.9912 40.856 22.2109 40.4561 21.6479C40.0562 21.0854 39.2759 20.9541 38.7129 21.354L37.3188 22.3452C37.0776 22.1724 36.8281 22.0088 36.5693 21.8574C36.2119 21.6479 35.8613 21.4277 35.5166 21.1987L46.3066 14.9692C47.9038 18.1167 48.75 21.6182 48.75 25.25C48.75 37.7944 38.5444 48 26 48C18.042 48 11.0269 43.8921 6.95996 37.686L17.4272 31.6431Z" fill="#67D43D"/>
</svg>
