<svg width="58" height="58" viewBox="0 0 58 58" fill="none" xmlns="http://www.w3.org/2000/svg">
<path d="M46 34C39.383 34 34 39.383 34 46C34 52.617 39.383 58 46 58C52.617 58 58 52.617 58 46C58 39.383 52.617 34 46 34ZM46 56C40.486 56 36 51.514 36 46C36 40.486 40.486 36 46 36C51.514 36 56 40.486 56 46C56 51.514 51.514 56 46 56Z" fill="#67D43D"/>
<path d="M52 45H47V40C47 39.447 46.553 39 46 39C45.447 39 45 39.447 45 40V46C45 46.553 45.447 47 46 47H52C52.553 47 53 46.553 53 46C53 45.447 52.553 45 52 45Z" fill="#67D43D"/>
<path d="M27 21H25H18H16H7V30V32V39V41V50H16H18H27V41V39V32H34H36H45V21H36H34H27ZM36 23H43V30H36V23ZM18 23H25V30H18V23ZM9 23H16V30H9V23ZM9 32H16V39H9V32ZM16 48H9V41H16V48ZM25 48H18V41H25V48ZM25 39H18V32H25V39ZM34 30H27V23H34V30Z" fill="#67D43D"/>
<path d="M33 55H2V16H50V29C50 29.553 50.447 30 51 30C51.553 30 52 29.553 52 29V15V5C52 4.447 51.553 4 51 4H46V1C46 0.447 45.553 0 45 0H38C37.447 0 37 0.447 37 1V4H15V1C15 0.447 14.553 0 14 0H7C6.447 0 6 0.447 6 1V4H1C0.447 4 0 4.447 0 5V15V56C0 56.553 0.447 57 1 57H33C33.553 57 34 56.553 34 56C34 55.447 33.553 55 33 55ZM39 2H44V5V8H39V5V2ZM8 2H13V5V8H8V5V2ZM2 6H6V9C6 9.553 6.447 10 7 10H14C14.553 10 15 9.553 15 9V6H37V9C37 9.553 37.447 10 38 10H45C45.553 10 46 9.553 46 9V6H50V14H2V6Z" fill="#67D43D"/>
</svg>
