<svg width="16" height="16" viewBox="0 0 16 16" fill="none" xmlns="http://www.w3.org/2000/svg">
<path fill-rule="evenodd" clip-rule="evenodd" d="M12.5719 1.35981H14.5591C14.8709 1.35981 15.1237 1.61259 15.1237 1.92441V15.4354C15.1237 15.7472 14.8709 16 14.5591 16H1.44097C1.12915 16 0.876373 15.7472 0.876373 15.4354V1.92441C0.876373 1.61259 1.12915 1.35981 1.44097 1.35981H3.42815V0.564594C3.42815 0.252781 3.68094 0 3.99275 0C4.30456 0 4.55734 0.252781 4.55734 0.564594V1.35981H11.4427V0.564594C11.4427 0.252781 11.6955 0 12.0073 0C12.3191 0 12.5719 0.252781 12.5719 0.564594V1.35981ZM2.00553 14.8708H13.9945V5.44834H2.00553V14.8708ZM2.00553 4.31916H13.9945V2.48897H2.00553V4.31916ZM6.82587 7.39196L8.0559 6.64649C8.33346 6.47292 8.96915 6.65705 8.96912 7.0378V12.9644C8.96912 13.2626 8.60568 13.4117 8.24224 13.4117C7.87881 13.4117 7.5154 13.2626 7.5154 12.9644V8.2213L7.24515 8.38902C6.69553 8.75533 6.24803 7.73864 6.82587 7.39196Z" fill="white"/>
</svg>
