<svg width="50" height="50" viewBox="0 0 50 50" fill="none" xmlns="http://www.w3.org/2000/svg">
<path fill-rule="evenodd" clip-rule="evenodd" d="M25 47C37.1503 47 47 37.1503 47 25C47 12.8497 37.1503 3 25 3C12.8497 3 3 12.8497 3 25C3 37.1503 12.8497 47 25 47ZM25 50C38.8071 50 50 38.8071 50 25C50 11.1929 38.8071 0 25 0C11.1929 0 0 11.1929 0 25C0 38.8071 11.1929 50 25 50Z" fill="#67D43D"/>
<path d="M15.8115 26.8848C15.1494 27.5352 14.376 27.8604 13.4912 27.8604C12.3604 27.8604 11.4551 27.4736 10.7754 26.7002C10.0957 25.9209 9.75586 24.8721 9.75586 23.5537C9.75586 22.7158 9.9375 21.9482 10.3008 21.251C10.6699 20.5479 11.1826 20.0029 11.8389 19.6162C12.4951 19.2236 13.2334 19.0273 14.0537 19.0273C14.8975 19.0273 15.6475 19.2383 16.3037 19.6602C16.96 20.082 17.4697 20.6885 17.833 21.4795C18.1963 22.2705 18.3809 23.1758 18.3867 24.1953V25.1357C18.3867 27.2686 17.8564 28.9443 16.7959 30.1631C15.7354 31.3818 14.2324 32.0322 12.2871 32.1143L11.6631 32.123V30.0049L12.2256 29.9961C14.4346 29.8965 15.6299 28.8594 15.8115 26.8848ZM14.1152 25.918C14.5254 25.918 14.877 25.8125 15.1699 25.6016C15.4688 25.3906 15.6943 25.1357 15.8467 24.8369V23.791C15.8467 22.9297 15.6826 22.2617 15.3545 21.7871C15.0264 21.3125 14.5869 21.0752 14.0361 21.0752C13.5264 21.0752 13.1074 21.3096 12.7793 21.7783C12.4512 22.2412 12.2871 22.8242 12.2871 23.5273C12.2871 24.2246 12.4453 24.7988 12.7617 25.25C13.084 25.6953 13.5352 25.918 14.1152 25.918Z" fill="#67D43D"/>
<path d="M28.8193 26.709C28.8193 28.4785 28.4531 29.832 27.7207 30.7695C26.9883 31.707 25.916 32.1758 24.5039 32.1758C23.1094 32.1758 22.043 31.7158 21.3047 30.7959C20.5664 29.876 20.1885 28.5576 20.1709 26.8408V24.4854C20.1709 22.6982 20.54 21.3418 21.2783 20.416C22.0225 19.4902 23.0918 19.0273 24.4863 19.0273C25.8809 19.0273 26.9473 19.4873 27.6855 20.4072C28.4238 21.3213 28.8018 22.6367 28.8193 24.3535V26.709ZM26.2793 24.125C26.2793 23.0645 26.1328 22.2939 25.8398 21.8135C25.5527 21.3271 25.1016 21.084 24.4863 21.084C23.8887 21.084 23.4463 21.3154 23.1592 21.7783C22.8779 22.2354 22.7285 22.9531 22.7109 23.9316V27.043C22.7109 28.0859 22.8516 28.8623 23.1328 29.3721C23.4199 29.876 23.877 30.1279 24.5039 30.1279C25.125 30.1279 25.5732 29.8848 25.8486 29.3984C26.124 28.9121 26.2676 28.168 26.2793 27.166V24.125Z" fill="#67D43D"/>
<path d="M30.5068 21.6641C30.5068 20.8789 30.7617 20.2432 31.2715 19.7568C31.7812 19.2646 32.4492 19.0186 33.2754 19.0186C34.1133 19.0186 34.7871 19.2617 35.2969 19.748C35.8066 20.2285 36.0615 20.8818 36.0615 21.708V22.3408C36.0615 23.1318 35.8066 23.7676 35.2969 24.248C34.7871 24.7285 34.1191 24.9688 33.293 24.9688C32.4609 24.9688 31.7871 24.7285 31.2715 24.248C30.7617 23.7617 30.5068 23.1084 30.5068 22.2881V21.6641ZM32.1943 22.3408C32.1943 22.6924 32.2939 22.9766 32.4932 23.1934C32.6982 23.4043 32.9648 23.5098 33.293 23.5098C33.6211 23.5098 33.8818 23.4014 34.0752 23.1846C34.2686 22.9678 34.3652 22.6777 34.3652 22.3145V21.6641C34.3652 21.3125 34.2686 21.0283 34.0752 20.8115C33.8818 20.5947 33.6152 20.4863 33.2754 20.4863C32.9531 20.4863 32.6924 20.5947 32.4932 20.8115C32.2939 21.0225 32.1943 21.3184 32.1943 21.6992V22.3408ZM36.624 28.8623C36.624 28.0713 36.8818 27.4355 37.3975 26.9551C37.9131 26.4688 38.5811 26.2256 39.4014 26.2256C40.2334 26.2256 40.9043 26.4658 41.4141 26.9463C41.9297 27.4209 42.1875 28.0771 42.1875 28.915V29.5479C42.1875 30.333 41.9355 30.9688 41.4316 31.4551C40.9277 31.9355 40.2568 32.1758 39.4189 32.1758C38.5752 32.1758 37.8984 31.9326 37.3887 31.4463C36.8789 30.96 36.624 30.3154 36.624 29.5127V28.8623ZM38.3115 29.5479C38.3115 29.8701 38.417 30.1455 38.6279 30.374C38.8389 30.6025 39.1025 30.7168 39.4189 30.7168C40.1338 30.7168 40.4912 30.3213 40.4912 29.5303V28.8623C40.4912 28.5107 40.3916 28.2295 40.1924 28.0186C39.9932 27.8018 39.7295 27.6934 39.4014 27.6934C39.0732 27.6934 38.8096 27.8018 38.6104 28.0186C38.4111 28.2295 38.3115 28.5195 38.3115 28.8887V29.5479ZM33.7939 31.042L32.5547 30.374L38.8037 20.3721L40.043 21.04L33.7939 31.042Z" fill="#67D43D"/>
</svg>
