<svg width="64" height="64" viewBox="0 0 64 64" fill="none" xmlns="http://www.w3.org/2000/svg">
<g clip-path="url(#clip0)">
<path d="M11.7333 59.7334C12.0568 59.7334 12.363 59.586 12.5651 59.3334C13.0135 58.7787 23.4667 45.662 23.4667 39.4667C23.4667 32.9865 18.2135 27.7334 11.7333 27.7334C5.25313 27.7334 0 32.9865 0 39.4667C0 45.662 10.4531 58.7735 10.9016 59.3334C11.1036 59.586 11.4099 59.7334 11.7333 59.7334ZM11.7333 29.8667C17.0328 29.8725 21.3276 34.1673 21.3333 39.4667C21.3333 43.6053 15.0281 52.6548 11.7333 56.9376C8.43854 52.6563 2.13333 43.6074 2.13333 39.4667C2.13906 34.1673 6.43385 29.8725 11.7333 29.8667Z" fill="#67D43D"/>
<path d="M15.9999 38.4C15.9999 36.0437 14.0895 34.1333 11.7332 34.1333C9.37697 34.1333 7.46655 36.0437 7.46655 38.4C7.46655 40.7562 9.37697 42.6666 11.7332 42.6666C14.0895 42.6666 15.9999 40.7562 15.9999 38.4ZM9.59989 38.4C9.59989 37.2218 10.5551 36.2666 11.7332 36.2666C12.9113 36.2666 13.8666 37.2218 13.8666 38.4C13.8666 39.5781 12.9113 40.5333 11.7332 40.5333C10.5551 40.5333 9.59989 39.5781 9.59989 38.4Z" fill="#67D43D"/>
<path d="M55.4667 22.4C55.7776 22.4 56.0724 22.2646 56.275 22.0286C57.0667 21.1104 64 12.926 64 8.53333C64 3.82031 60.1797 0 55.4667 0C50.7537 0 46.9333 3.82031 46.9333 8.53333C46.9333 12.926 53.8667 21.1104 54.6583 22.0286C54.861 22.2646 55.1557 22.4 55.4667 22.4ZM55.4667 2.13333C59 2.13698 61.863 5 61.8667 8.53333C61.8667 11.2365 57.7943 16.8062 55.4667 19.6682C53.138 16.8062 49.0667 11.2417 49.0667 8.53333C49.0703 5 51.9333 2.13698 55.4667 2.13333Z" fill="#67D43D"/>
<path d="M58.6666 7.4666C58.6666 5.69941 57.2338 4.2666 55.4666 4.2666C53.6994 4.2666 52.2666 5.69941 52.2666 7.4666C52.2666 9.23379 53.6994 10.6666 55.4666 10.6666C57.2338 10.6666 58.6666 9.23379 58.6666 7.4666ZM54.3999 7.4666C54.3999 6.87754 54.8775 6.39994 55.4666 6.39994C56.0557 6.39994 56.5333 6.87754 56.5333 7.4666C56.5333 8.05566 56.0557 8.53327 55.4666 8.53327C54.8775 8.53327 54.3999 8.05566 54.3999 7.4666Z" fill="#67D43D"/>
<path d="M54.3999 26.6668H55.4666C56.0557 26.6668 56.5333 26.1892 56.5333 25.6001C56.5333 25.0111 56.0557 24.5334 55.4666 24.5334H54.3999C53.8109 24.5334 53.3333 25.0111 53.3333 25.6001C53.3333 26.1892 53.8109 26.6668 54.3999 26.6668Z" fill="#67D43D"/>
<path d="M40.5333 33.0667H42.6901C43.2791 33.0667 43.7567 32.5891 43.7567 32C43.7567 31.411 43.2791 30.9333 42.6901 30.9333H40.5161C40.2343 30.9339 39.964 31.0469 39.7656 31.2469C39.5671 31.4469 39.4562 31.7182 39.4583 32C39.4619 32.5906 39.9427 33.0672 40.5333 33.0667Z" fill="#67D43D"/>
<path d="M52.4917 32C52.4917 32.5891 52.9693 33.0667 53.5584 33.0667H55.7313C56.3203 33.0667 56.798 32.5891 56.798 32C56.798 31.411 56.3203 30.9333 55.7313 30.9333H53.5584C52.9693 30.9333 52.4917 31.411 52.4917 32Z" fill="#67D43D"/>
<path d="M47.8797 26.6668H50.0531C50.6422 26.6668 51.1198 26.1892 51.1198 25.6001C51.1198 25.0111 50.6422 24.5334 50.0531 24.5334H47.8797C47.2901 24.5334 46.813 25.0111 46.813 25.6001C46.813 26.1892 47.2901 26.6668 47.8797 26.6668Z" fill="#67D43D"/>
<path d="M19.4291 61.8667H17.2551C16.6661 61.8667 16.1885 62.3443 16.1885 62.9334C16.1885 63.5224 16.6661 64 17.2551 64H19.4291C20.0182 64 20.4958 63.5224 20.4958 62.9334C20.4958 62.3443 20.0182 61.8667 19.4291 61.8667Z" fill="#67D43D"/>
<path d="M37.4006 30.5282C37.4751 30.5282 37.549 30.5204 37.6214 30.5047C38.1975 30.3834 38.5662 29.8188 38.4459 29.2427C38.4157 29.0969 38.4006 28.949 38.4001 28.8C38.3996 28.4625 38.4792 28.1303 38.6324 27.8292C38.8996 27.3042 38.6907 26.662 38.1652 26.3948C37.6402 26.1276 36.998 26.3365 36.7308 26.862C36.2886 27.7303 36.1574 28.7245 36.3584 29.6782C36.461 30.1719 36.8959 30.5271 37.4006 30.5282Z" fill="#67D43D"/>
<path d="M47.0401 33.0667H49.214C49.8031 33.0667 50.2807 32.5891 50.2807 32C50.2807 31.411 49.8031 30.9333 49.214 30.9333H47.0401C46.451 30.9333 45.9734 31.411 45.9734 32C45.9734 32.5891 46.451 33.0667 47.0401 33.0667Z" fill="#67D43D"/>
<path d="M41.3589 26.6668H43.5329C44.1219 26.6668 44.5995 26.1892 44.5995 25.6001C44.5995 25.0111 44.1219 24.5334 43.5329 24.5334H41.3589C40.7698 24.5334 40.2922 25.0111 40.2922 25.6001C40.2922 26.1892 40.7698 26.6668 41.3589 26.6668Z" fill="#67D43D"/>
<path d="M30.8184 45.202C30.9027 45.2239 30.9902 45.2343 31.0772 45.2343C31.5668 45.2333 31.9928 44.8999 32.1111 44.4254C32.2491 43.877 32.509 43.3666 32.8715 42.9322C33.1277 42.6416 33.2059 42.2353 33.0767 41.8708C32.9475 41.5056 32.6303 41.2395 32.2486 41.1749C31.8673 41.1109 31.4803 41.2582 31.2387 41.5603C30.6673 42.2421 30.258 43.0442 30.0418 43.9072C29.9725 44.1817 30.0158 44.4728 30.1616 44.7156C30.3069 44.9588 30.5434 45.1338 30.8184 45.202Z" fill="#67D43D"/>
<path d="M51.8911 61.8219C51.6619 61.8521 51.4312 61.8672 51.1999 61.8667H49.8572C49.2676 61.8667 48.7905 62.3443 48.7905 62.9334C48.7905 63.5224 49.2676 64 49.8572 64H51.1999C51.5207 64 51.8416 63.9792 52.1598 63.9381C52.7442 63.8625 53.1567 63.3276 53.0817 62.7433C53.0062 62.1589 52.4713 61.7464 51.8869 61.8219H51.8911Z" fill="#67D43D"/>
<path d="M53.3772 49.3865C52.6715 49.1729 51.9376 49.0651 51.2001 49.0667H50.9204C50.3314 49.0667 49.8538 49.5443 49.8538 50.1333C49.8538 50.7224 50.3314 51.2 50.9204 51.2H51.2001C51.7272 51.2 52.2517 51.2776 52.7564 51.4302C52.8569 51.4615 52.9616 51.4771 53.0668 51.4771C53.5954 51.4776 54.0449 51.0906 54.123 50.5677C54.2007 50.0443 53.8835 49.5432 53.3772 49.3901V49.3865Z" fill="#67D43D"/>
<path d="M51.1021 41.5999C51.6912 41.5999 52.1688 41.1223 52.1688 40.5332C52.1688 39.9442 51.6912 39.4666 51.1021 39.4666H48.9292C48.3402 39.4666 47.8625 39.9442 47.8625 40.5332C47.8625 41.1223 48.3402 41.5999 48.9292 41.5999H51.1021Z" fill="#67D43D"/>
<path d="M57.4761 58.1854C56.9396 57.9437 56.3084 58.1823 56.0662 58.7187C55.8177 59.2703 55.4766 59.7755 55.0584 60.2125C54.7844 60.4859 54.6802 60.8859 54.786 61.2578C54.8917 61.6302 55.1907 61.9161 55.5667 62.0047C55.9433 62.0937 56.3386 61.9719 56.5995 61.6864C57.186 61.075 57.6641 60.3672 58.012 59.5948C58.2527 59.0578 58.0131 58.4271 57.4761 58.1854Z" fill="#67D43D"/>
<path d="M63.0625 36.4542C62.7911 36.374 62.4989 36.4047 62.25 36.5401C62.0015 36.6755 61.8166 36.9042 61.7364 37.1755C61.5796 37.6985 61.2932 38.1735 60.9036 38.5558C60.4822 38.9683 60.4749 39.6438 60.8874 40.0651C61.3 40.4865 61.9755 40.4933 62.3968 40.0813C63.0468 39.4443 63.5239 38.6526 63.7833 37.7802C63.864 37.5089 63.8328 37.2167 63.6979 36.9677C63.5625 36.7193 63.3338 36.5344 63.0625 36.4542Z" fill="#67D43D"/>
<path d="M61.8454 34.4854C62.2667 34.4859 62.6485 34.238 62.8204 33.8536C62.9917 33.4693 62.9214 33.0198 62.6402 32.7062C62.0313 32.0292 61.2605 31.5182 60.4001 31.2213C59.8428 31.0297 59.236 31.3265 59.0443 31.8838C58.8527 32.4411 59.1495 33.0479 59.7068 33.2396C60.2235 33.4172 60.686 33.724 61.0506 34.1312C61.2532 34.3568 61.5422 34.4854 61.8454 34.4854Z" fill="#67D43D"/>
<path d="M46.5741 49.0667H44.4011C43.8121 49.0667 43.3345 49.5443 43.3345 50.1333C43.3345 50.7224 43.8121 51.2 44.4011 51.2H46.5741C47.1631 51.2 47.6407 50.7224 47.6407 50.1333C47.6407 49.5443 47.1631 49.0667 46.5741 49.0667Z" fill="#67D43D"/>
<path d="M57.6225 39.4666H55.4485C54.8594 39.4666 54.3818 39.9442 54.3818 40.5332C54.3818 41.1223 54.8594 41.5999 55.4485 41.5999H57.6225C58.2115 41.5999 58.6891 41.1223 58.6891 40.5332C58.6891 39.9442 58.2115 39.4666 57.6225 39.4666Z" fill="#67D43D"/>
<path d="M25.9491 61.8667H23.7761C23.1871 61.8667 22.7095 62.3443 22.7095 62.9334C22.7095 63.5224 23.1871 64 23.7761 64H25.9491C26.5381 64 27.0157 63.5224 27.0157 62.9334C27.0157 62.3443 26.5381 61.8667 25.9491 61.8667Z" fill="#67D43D"/>
<path d="M57.3791 52.3412C57.0463 51.8543 56.3817 51.7293 55.8942 52.0621C55.4072 52.3949 55.2822 53.0595 55.6151 53.547C55.9557 54.0459 56.2083 54.5996 56.3614 55.184C56.4447 55.5657 56.7302 55.8715 57.1057 55.9808C57.4807 56.0902 57.8854 55.9855 58.1609 55.7079C58.4359 55.4308 58.5375 55.0251 58.4255 54.6506C58.2119 53.8267 57.8583 53.0454 57.3791 52.3412Z" fill="#67D43D"/>
<path d="M34.0822 48.6839C33.5754 48.4313 33.1322 48.0688 32.7838 47.6225C32.4223 47.1568 31.752 47.073 31.2869 47.4345C30.8213 47.7954 30.7374 48.4657 31.0983 48.9313C31.6447 49.6324 32.3416 50.2016 33.1379 50.5964C33.6635 50.8417 34.289 50.622 34.5457 50.1016C34.8025 49.5819 34.5963 48.9516 34.0822 48.6839Z" fill="#67D43D"/>
<path d="M32.4693 61.8667H30.2932C29.7042 61.8667 29.2266 62.3443 29.2266 62.9334C29.2266 63.5224 29.7042 64 30.2932 64H32.4693C33.0583 64 33.5359 63.5224 33.5359 62.9334C33.5359 62.3443 33.0583 61.8667 32.4693 61.8667Z" fill="#67D43D"/>
<path d="M45.5103 61.8667H43.3374C42.7484 61.8667 42.2708 62.3443 42.2708 62.9334C42.2708 63.5224 42.7484 64 43.3374 64H45.5103C46.0994 64 46.577 63.5224 46.577 62.9334C46.577 62.3443 46.0994 61.8667 45.5103 61.8667Z" fill="#67D43D"/>
<path d="M38.0621 41.5999C38.6512 41.5999 39.1288 41.1223 39.1288 40.5332C39.1288 39.9442 38.6512 39.4666 38.0621 39.4666H35.8892C35.3001 39.4666 34.8225 39.9442 34.8225 40.5332C34.8225 41.1223 35.3001 41.5999 35.8892 41.5999H38.0621Z" fill="#67D43D"/>
<path d="M44.5863 41.5999C45.1754 41.5999 45.653 41.1223 45.653 40.5332C45.653 39.9442 45.1754 39.4666 44.5863 39.4666H42.4082C41.8192 39.4666 41.3416 39.9442 41.3416 40.5332C41.3416 41.1223 41.8192 41.5999 42.4082 41.5999H44.5863Z" fill="#67D43D"/>
<path d="M40.0541 49.0667H37.8806C37.2916 49.0667 36.814 49.5443 36.814 50.1333C36.814 50.7224 37.2916 51.2 37.8806 51.2H40.0541C40.6437 51.2 41.1207 50.7224 41.1207 50.1333C41.1207 49.5443 40.6437 49.0667 40.0541 49.0667Z" fill="#67D43D"/>
<path d="M38.9911 61.8667H36.8172C36.2281 61.8667 35.7505 62.3443 35.7505 62.9334C35.7505 63.5224 36.2281 64 36.8172 64H38.9911C39.5802 64 40.0578 63.5224 40.0578 62.9334C40.0578 62.3443 39.5802 61.8667 38.9911 61.8667Z" fill="#67D43D"/>
<path d="M12.8001 61.8667H11.7334C11.1444 61.8667 10.6667 62.3443 10.6667 62.9334C10.6667 63.5224 11.1444 64 11.7334 64H12.8001C13.3891 64 13.8667 63.5224 13.8667 62.9334C13.8667 62.3443 13.3891 61.8667 12.8001 61.8667Z" fill="#67D43D"/>
</g>
<defs>
<clipPath id="clip0">
<rect width="64" height="64" fill="white"/>
</clipPath>
</defs>
</svg>
