<svg width="46" height="46" viewBox="0 0 46 46" fill="none" xmlns="http://www.w3.org/2000/svg">
<path d="M37.2527 0.930908C35.4398 0.930908 33.6724 1.5576 32.2557 2.69599C32.2516 2.6989 32.2474 2.70129 32.2433 2.70429L6.32846 22.0488C3.28076 24.1631 1.29656 27.4691 0.814558 31.1213C0.781106 31.2301 0.762289 31.345 0.762289 31.4637V31.5746C0.721084 31.9995 0.699219 32.4282 0.699219 32.86C0.699219 33.2969 0.72091 33.7287 0.762289 34.1547V34.3843C0.762289 34.5325 0.79095 34.6747 0.841999 34.8063C1.16058 36.9639 2.00036 38.9507 3.22684 40.6309C3.28033 40.8047 3.37371 40.9678 3.50752 41.1034L4.10138 41.7055C4.3521 41.9823 4.61431 42.2482 4.88733 42.5023L5.54452 43.1685C5.68895 43.3149 5.86457 43.4147 6.05152 43.4661C7.66096 44.6487 9.54855 45.4646 11.5946 45.7915C11.7653 45.8934 11.9632 45.9517 12.1722 45.9517H15.053C15.2616 45.9517 15.4591 45.8937 15.6296 45.7921C17.6544 45.4714 19.5573 44.6707 21.2002 43.4577C21.3771 43.4043 21.5431 43.308 21.6807 43.1685L22.2122 42.6297C22.5641 42.3102 22.9003 41.9692 23.2197 41.6082L23.7178 41.1033C23.8486 40.9707 23.9409 40.8118 23.9949 40.6422L43.6511 14.0418C43.655 14.0365 43.6581 14.0308 43.662 14.0254C44.7205 12.6126 45.3017 10.8715 45.3017 9.09085C45.3017 4.59143 41.6909 0.930908 37.2527 0.930908ZM43.1626 6.01702C43.363 6.41126 43.5259 6.82785 43.647 7.26227L43.3575 7.20549C43.2559 6.89038 43.1305 6.58374 42.9822 6.2878L43.1626 6.01702ZM40.4769 3.2031L40.1562 3.42274C39.8642 3.27252 39.5618 3.14543 39.251 3.04236L39.1747 2.64265C39.6315 2.7828 40.0673 2.97171 40.4769 3.2031ZM35.3306 2.64379L35.2545 3.04236C34.9437 3.14543 34.6412 3.27252 34.3493 3.42274L34.0274 3.20222C34.4413 2.96959 34.8783 2.78236 35.3306 2.64379ZM3.77 26.8119L4.51639 27.9317C4.17543 28.5691 3.90137 29.2394 3.69804 29.9332L2.4104 30.1859C2.6876 28.9918 3.14713 27.8536 3.77 26.8119ZM3.8126 38.9722C3.19748 37.9621 2.73011 36.8504 2.44089 35.668L3.69804 35.9148C3.90137 36.6088 4.17543 37.2791 4.51639 37.9163L3.8126 38.9722ZM7.66557 42.8466L8.68856 42.1459C9.31717 42.4916 9.97837 42.7694 10.6629 42.9755L10.8965 44.1993C9.7422 43.9151 8.65519 43.4547 7.66557 42.8466ZM16.3287 44.2017L16.5628 42.9755C17.2474 42.7694 17.9086 42.4915 18.5371 42.1458L19.5665 42.851C18.5644 43.4662 17.4739 43.9219 16.3287 44.2017ZM23.4423 39.0163L22.7092 37.9162C23.0501 37.2789 23.3242 36.6087 23.5275 35.9147L25.5389 35.5199C26.0745 35.4149 26.4632 34.9372 26.4632 34.3843V31.4637C26.4632 30.9106 26.0745 30.4329 25.539 30.328L23.5275 29.9332C23.3242 29.2392 23.0501 28.569 22.7092 27.9317L23.8565 26.2103C24.162 25.7521 24.1037 25.1356 23.7179 24.7446L21.6808 22.6793C21.2951 22.2884 20.6872 22.2293 20.2351 22.5389L18.5371 23.7021C17.776 23.2836 16.9672 22.9645 16.1267 22.7516C15.7509 22.6568 15.3696 22.8883 15.2755 23.2696C15.1815 23.651 15.4103 24.0373 15.7865 24.1326C16.6383 24.3483 17.4527 24.6905 18.207 25.1497C18.4412 25.2922 18.7354 25.2841 18.9614 25.1292L20.8416 23.8413L22.572 25.5956L21.3016 27.5016C21.1488 27.7309 21.1408 28.0291 21.2814 28.2664C21.7344 29.0313 22.0719 29.8569 22.2847 30.7204C22.3508 30.9889 22.5644 31.1941 22.8323 31.2467L25.0592 31.6836V34.1645L22.8323 34.6015C22.5644 34.6541 22.3508 34.8593 22.2847 35.1278C22.0718 35.9914 21.7344 36.817 21.2814 37.5817C21.1408 37.819 21.1487 38.1172 21.3015 38.3466L22.547 40.2152C22.435 40.3548 22.3212 40.4921 22.2039 40.6255L21.2559 41.5867C21.1068 41.7214 20.9547 41.8519 20.7996 41.978L18.9613 40.7188C18.7353 40.5641 18.441 40.556 18.2069 40.6984C17.4526 41.1576 16.6382 41.4999 15.7865 41.7155C15.5216 41.7826 15.3193 41.9991 15.2673 42.2708L14.849 44.4614C14.4411 44.5054 14.0287 44.5286 13.6127 44.5286C13.195 44.5286 12.7826 44.5053 12.3763 44.4611L11.9581 42.2709C11.9063 41.9992 11.7038 41.7827 11.439 41.7156C10.5872 41.4999 9.77287 41.1577 9.01846 40.6985C8.78447 40.556 8.4902 40.5643 8.26405 40.7189L6.43308 41.9731C6.24317 41.819 6.05771 41.6595 5.87781 41.4938L5.0964 40.7015C4.95353 40.5421 4.81537 40.3783 4.68121 40.2111L5.9239 38.3466C6.0767 38.1172 6.08462 37.819 5.94402 37.5817C5.49103 36.817 5.15346 35.9913 4.94073 35.1278C4.87461 34.8593 4.661 34.6541 4.39313 34.6015L2.17554 34.1664C2.1725 34.1386 2.16901 34.1109 2.16614 34.083V31.6836L4.39313 31.2467C4.661 31.1941 4.87461 30.9889 4.94073 30.7204C5.15346 29.857 5.49103 29.0313 5.94411 28.2664C6.08462 28.0291 6.0767 27.7309 5.9239 27.5016L4.65351 25.5956L6.38377 23.8414L8.26396 25.1293C8.49011 25.2842 8.78438 25.2923 9.01837 25.1498C9.77261 24.6906 10.587 24.3483 11.4389 24.1326C11.7037 24.0655 11.9061 23.8491 11.958 23.5775L12.389 21.3198H14.8732C15.0178 21.5783 15.3136 21.7273 15.6174 21.6674C15.998 21.5928 16.2469 21.2195 16.1732 20.8336C16.0697 20.2906 15.5985 19.8966 15.053 19.8966H12.1722C11.6267 19.8966 11.1556 20.2905 11.0519 20.8335L10.6626 22.8727C9.97794 23.0789 9.31683 23.3567 8.6883 23.7024L7.53743 22.914L30.9543 5.43396L31.5233 6.28771C31.3751 6.58365 31.2497 6.89029 31.148 7.2054L30.1219 7.40667C29.6701 7.49534 29.3423 7.89824 29.3423 8.36472V10.0977C29.3423 10.5641 29.6702 10.967 30.1219 11.0556L31.148 11.257C31.2497 11.5721 31.375 11.8787 31.5233 12.1746L30.938 13.0528C30.6804 13.4393 30.7295 13.9593 31.0549 14.289L32.2636 15.5144C32.589 15.8443 33.1018 15.8941 33.483 15.6329L34.3493 15.0395C34.6411 15.1898 34.9437 15.3169 35.2545 15.4199L35.453 16.46C35.5403 16.9181 35.9378 17.2506 36.398 17.2506H38.1074C38.5675 17.2506 38.965 16.9182 39.0523 16.4603L39.2509 15.42C39.5618 15.3169 39.8643 15.1899 40.1562 15.0396L40.8222 15.4959L23.4423 39.0163ZM43.0814 12.3235L42.9822 12.1748C43.1304 11.8789 43.2558 11.5722 43.3575 11.2572L43.5554 11.2183C43.4302 11.5999 43.2718 11.97 43.0814 12.3235ZM42.6691 9.94248C42.4012 9.99503 42.1877 10.2003 42.1215 10.4688C42.0022 10.9533 41.8127 11.4167 41.5584 11.846C41.4177 12.0832 41.4257 12.3814 41.5785 12.6107L42.2004 13.5439L41.5067 14.2472L40.5862 13.6167C40.3601 13.4618 40.0658 13.4537 39.8317 13.5963C39.4085 13.854 38.9515 14.046 38.4733 14.1672C38.2085 14.2342 38.0061 14.4507 37.9543 14.7223L37.7432 15.8276H36.7622L36.5511 14.7223C36.4993 14.4507 36.2968 14.2342 36.0321 14.1672C35.554 14.0461 35.0968 13.854 34.6735 13.5963C34.4395 13.4538 34.1454 13.4619 33.9192 13.6167L32.9987 14.2472L32.305 13.5439L32.9269 12.6107C33.0797 12.3814 33.0876 12.0832 32.947 11.846C32.6928 11.4167 32.5033 10.9533 32.3839 10.4688C32.3178 10.2004 32.1042 9.99512 31.8363 9.94248L30.7461 9.7285V8.73397L31.8363 8.52007C32.1043 8.46752 32.3178 8.26227 32.3839 7.99379C32.5033 7.50921 32.6927 7.04581 32.947 6.61651C33.0875 6.37929 33.0797 6.08105 32.9269 5.85178L32.305 4.91855L32.9987 4.21529L33.9192 4.84577C34.1453 5.00068 34.4395 5.00872 34.6736 4.86618C35.097 4.60847 35.554 4.41638 36.0321 4.2953C36.2968 4.22827 36.4993 4.01172 36.5512 3.74015L36.7623 2.63487H37.7433L37.9543 3.74015C38.0062 4.01181 38.2086 4.22827 38.4735 4.2953C38.9515 4.41629 39.4085 4.60838 39.8319 4.86618C40.066 5.00872 40.3603 5.00068 40.5862 4.84577L41.5068 4.21529L42.2005 4.91855L41.5786 5.85178C41.4258 6.08105 41.4178 6.37929 41.5584 6.61651C41.8126 7.04581 42.0021 7.50921 42.1215 7.99379C42.1877 8.26219 42.4013 8.46743 42.6691 8.52007L43.7594 8.73397V9.7285L42.6691 9.94248Z" fill="white"/>
</svg>
