<svg width="50" height="44" viewBox="0 0 50 44" fill="none" xmlns="http://www.w3.org/2000/svg">
<path d="M42.6171 17.7584H40.5734C40.2159 16.4398 39.6909 15.1718 39.0114 13.9851L40.4557 12.5407C40.7773 12.2191 40.9546 11.7913 40.9546 11.3364C40.9546 10.8815 40.7773 10.4537 40.4558 10.1321L36.8662 6.54256C36.5446 6.22091 36.1168 6.04368 35.6619 6.04368C35.207 6.04368 34.7792 6.22091 34.4576 6.54246L33.0132 7.98689C31.8262 7.30715 30.5585 6.78234 29.2398 6.42482V4.38127C29.2398 3.44223 28.4758 2.67822 27.5367 2.67822H22.4602C21.5211 2.67822 20.7571 3.44223 20.7571 4.38127V6.42999C19.4404 6.78875 18.1749 7.31432 16.9906 7.99387L15.5394 6.54275C15.2177 6.2211 14.7899 6.04387 14.335 6.04387C13.8801 6.04387 13.4523 6.2211 13.1307 6.54266L9.54119 10.1322C9.21954 10.4539 9.04231 10.8817 9.04231 11.3366C9.04231 11.7915 9.21954 12.2193 9.54109 12.5408L10.9977 13.9974C10.3212 15.1809 9.79867 16.4447 9.44239 17.7586H7.37981C6.44077 17.7586 5.67676 18.5226 5.67676 19.4618V24.5382C5.67676 25.4774 6.44077 26.2414 7.37981 26.2414H9.44755C9.80498 27.5533 10.3282 28.8147 11.0045 29.9957L9.54119 31.4591C9.21954 31.7807 9.04231 32.2086 9.04231 32.6634C9.04231 33.1183 9.21954 33.5462 9.54109 33.8677L13.1306 37.4573C13.4523 37.7789 13.8801 37.9562 14.335 37.9562C14.7899 37.9562 15.2177 37.7789 15.5393 37.4574L17.0027 35.994C18.1837 36.6704 19.4451 37.1935 20.7571 37.5509V39.6186C20.7571 40.5577 21.5211 41.3217 22.4602 41.3217H27.5367C28.4758 41.3217 29.2398 40.5577 29.2398 39.6186V37.5561C30.5537 37.1998 31.8174 36.6772 33.001 36.0008L34.4575 37.4573C34.7792 37.7789 35.207 37.9562 35.6619 37.9562C36.1168 37.9562 36.5446 37.7789 36.8661 37.4574L40.4557 33.8678C40.7773 33.546 40.9545 33.1181 40.9545 32.6633C40.9545 32.2084 40.7772 31.7806 40.4557 31.459L39.0045 30.0077C39.684 28.8234 40.2096 27.5578 40.5684 26.2412H42.6171C43.5561 26.2412 44.3201 25.4772 44.3201 24.538V19.4616C44.3202 18.5225 43.5562 17.7584 42.6171 17.7584ZM42.4071 24.3283H40.4069C39.6326 24.3283 38.9557 24.8495 38.7608 25.5959C38.4319 26.854 37.9309 28.0609 37.2716 29.1828C36.8798 29.8495 36.9891 30.6979 37.5374 31.2462L38.9545 32.6634L35.6618 35.9561L34.2394 34.5338C33.6921 33.9864 32.8446 33.8764 32.1786 34.2666C31.0572 34.9229 29.852 35.4212 28.5964 35.7476C27.8487 35.942 27.3267 36.6191 27.3267 37.3943V39.4087H22.67V37.3895C22.67 36.6152 22.1487 35.9383 21.4023 35.7433C20.1486 35.4156 18.9454 34.9167 17.8262 34.2603C17.1597 33.8696 16.3119 33.9791 15.764 34.5269L14.3348 35.9561L11.042 32.6634L12.4713 31.2341C13.019 30.6864 13.1287 29.8384 12.7378 29.1718C12.0815 28.0528 11.5825 26.8497 11.2549 25.5957C11.0596 24.8494 10.3827 24.3282 9.60862 24.3282H7.58956V19.6714H9.60393C10.3791 19.6714 11.0563 19.1494 11.2507 18.4017C11.5771 17.1461 12.0755 15.9408 12.7316 14.8198C13.1217 14.1536 13.0119 13.3062 12.4645 12.7587L11.0421 11.3364L14.3349 8.04361L15.7521 9.46078C16.3001 10.0088 17.1487 10.1185 17.8154 9.72658C18.9373 9.06711 20.1443 8.56612 21.4024 8.23739C22.1488 8.04246 22.67 7.36549 22.67 6.59124V4.59121H27.3267V6.58656C27.3267 7.36176 27.8487 8.03892 28.5964 8.23337C29.8562 8.56086 31.0652 9.06127 32.1894 9.72065C32.8559 10.1114 33.7036 10.0017 34.2515 9.45408L35.6618 8.0438L38.9545 11.3366L37.5443 12.7468C36.9965 13.2946 36.8869 14.1426 37.2777 14.809C37.9372 15.9333 38.4375 17.1422 38.7651 18.402C38.9594 19.1496 39.6366 19.6716 40.4118 19.6716H42.4071V24.3283Z" fill="black"/>
<path d="M22.8577 18.0649H27.1426C27.7336 18.0649 28.2138 18.5068 28.2138 19.0486H30.3563C30.3563 17.4216 28.9142 16.0973 27.1426 16.0973H26.0714V15.1135H23.9289V16.0973H22.8577C21.0861 16.0973 19.644 17.4216 19.644 19.0486V20.0324C19.644 21.6594 21.0861 22.9837 22.8577 22.9837H27.1426C27.7336 22.9837 28.2138 23.4247 28.2138 23.9675V24.9513C28.2138 25.4941 27.7336 25.9351 27.1426 25.9351H22.8577C22.2667 25.9351 21.7865 25.4941 21.7865 24.9513H19.644C19.644 26.5783 21.0861 27.9026 22.8577 27.9026H23.9289V28.8864H26.0714V27.9026H27.1426C28.9142 27.9026 30.3563 26.5783 30.3563 24.9513V23.9675C30.3563 22.3405 28.9142 21.0162 27.1426 21.0162H22.8577C22.2667 21.0162 21.7865 20.5742 21.7865 20.0324V19.0486C21.7865 18.5068 22.2667 18.0649 22.8577 18.0649Z" fill="black"/>
<path d="M24.7697 33.4773C27.3572 33.4773 29.8848 32.5747 31.8867 30.9367L30.5902 29.3547C28.9543 30.6941 26.8859 31.4325 24.7697 31.4325C19.6955 31.4325 15.5678 27.3048 15.5678 22.2306C15.5678 20.1143 16.3062 18.046 17.6456 16.409L16.0635 15.1135C14.4256 17.1155 13.5229 19.6431 13.5229 22.2306C13.5229 28.4316 18.5687 33.4773 24.7697 33.4773Z" fill="black"/>
<path d="M25.2308 12.5676C30.305 12.5676 34.4327 16.6962 34.4327 21.7694C34.4327 23.8857 33.6943 25.954 32.3549 27.59L33.937 28.8865C35.575 26.8846 36.4776 24.357 36.4776 21.7694C36.4776 15.5685 31.4318 10.5227 25.2308 10.5227C22.6433 10.5227 20.1157 11.4243 18.1138 13.0623L19.4103 14.6454C21.0463 13.3059 23.1146 12.5676 25.2308 12.5676Z" fill="black"/>
<path d="M45.8504 0C44.1773 0 42.7653 1.13674 42.3443 2.67825H38.1982C37.6701 2.67825 37.2417 3.10654 37.2417 3.63479V4.59133C37.2417 5.11948 37.67 5.54788 38.1982 5.54788C38.7264 5.54788 39.1548 5.11958 39.1548 4.59133H42.3443C42.7654 6.13284 44.1773 7.26958 45.8505 7.26958C47.8547 7.26958 49.4853 5.63903 49.4853 3.63479C49.4852 1.63055 47.8546 0 45.8504 0ZM45.8504 5.35649C44.901 5.35649 44.1287 4.58406 44.1287 3.63479C44.1287 2.68551 44.9011 1.91309 45.8504 1.91309C46.7998 1.91309 47.5721 2.68551 47.5721 3.63479C47.5721 4.58406 46.7998 5.35649 45.8504 5.35649Z" fill="black"/>
<path d="M11.8021 38.4203C11.2739 38.4203 10.8455 38.8486 10.8455 39.3769V39.4087H7.65607C7.23504 37.8672 5.82314 36.7305 4.14993 36.7305C2.14569 36.7305 0.515137 38.361 0.515137 40.3653C0.515137 42.3695 2.14569 44 4.14993 44C5.82304 44 7.23495 42.8633 7.65607 41.3218H11.8021C12.3302 41.3218 12.7586 40.8935 12.7586 40.3653V39.3769C12.7586 38.8487 12.3303 38.4203 11.8021 38.4203ZM4.14993 42.087C3.20056 42.087 2.42822 41.3145 2.42822 40.3653C2.42822 39.4159 3.20065 38.6436 4.14993 38.6436C5.0992 38.6436 5.87163 39.416 5.87163 40.3653C5.87163 41.3146 5.0993 42.087 4.14993 42.087Z" fill="black"/>
</svg>
