<svg width="33" height="32" viewBox="0 0 33 32" fill="none" xmlns="http://www.w3.org/2000/svg">
<path fill-rule="evenodd" clip-rule="evenodd" d="M16.7499 0C7.94629 0 0.80957 6.94961 0.80957 15.5224C0.80957 24.0952 7.94629 31.0448 16.7499 31.0448C25.5535 31.0448 32.6902 24.0952 32.6902 15.5224C32.6902 6.94961 25.5535 0 16.7499 0ZM13.2451 7.29367C14.1519 7.25348 14.4417 7.24365 16.7506 7.24365H16.7479C19.0575 7.24365 19.3462 7.25348 20.2531 7.29367C21.1581 7.33403 21.7763 7.47356 22.3183 7.67828C22.8779 7.88956 23.3508 8.17242 23.8237 8.63292C24.2966 9.09308 24.5871 9.55496 24.805 10.0995C25.014 10.6258 25.1574 11.2274 25.1999 12.1088C25.2407 12.9918 25.2513 13.274 25.2513 15.5223C25.2513 17.7707 25.2407 18.0522 25.1999 18.9352C25.1574 19.8162 25.014 20.418 24.805 20.9446C24.5871 21.4889 24.2966 21.9508 23.8237 22.4109C23.3514 22.8714 22.8778 23.155 22.3188 23.3664C21.7779 23.5711 21.1594 23.7107 20.2543 23.751C19.3475 23.7912 19.0586 23.801 16.7495 23.801C14.4408 23.801 14.1512 23.7912 13.2444 23.751C12.3395 23.7107 11.7216 23.5711 11.1806 23.3664C10.6218 23.155 10.1475 22.8714 9.67516 22.4109C9.20243 21.9508 8.91196 21.4889 8.69464 20.9444C8.48458 20.418 8.34129 19.8164 8.29967 18.9351C8.25858 18.052 8.24831 17.7707 8.24831 15.5223C8.24831 13.274 8.25893 12.9917 8.29949 12.1086C8.34023 11.2276 8.48369 10.6258 8.69446 10.0993C8.91232 9.55496 9.20279 9.09308 9.67569 8.63292C10.1482 8.17259 10.6226 7.88974 11.1817 7.67828C11.7223 7.47356 12.34 7.33403 13.2451 7.29367Z" fill="#67D43D"/>
<path fill-rule="evenodd" clip-rule="evenodd" d="M15.9881 8.73547C16.1362 8.73524 16.2955 8.73531 16.4674 8.73539L16.7508 8.73547C19.0207 8.73547 19.2897 8.7434 20.1861 8.78307C21.015 8.81998 21.4649 8.95485 21.7646 9.06817C22.1613 9.21822 22.4442 9.39759 22.7416 9.68735C23.0391 9.9771 23.2233 10.2531 23.3778 10.6394C23.4941 10.9309 23.6328 11.369 23.6705 12.1761C23.7113 13.0488 23.7201 13.311 23.7201 15.5204C23.7201 17.7298 23.7113 17.9919 23.6705 18.8646C23.6326 19.6718 23.4941 20.1099 23.3778 20.4014C23.2237 20.7877 23.0391 21.0628 22.7416 21.3524C22.444 21.6421 22.1615 21.8215 21.7646 21.9716C21.4653 22.0854 21.015 22.2199 20.1861 22.2568C19.2899 22.2965 19.0207 22.3051 16.7508 22.3051C14.4807 22.3051 14.2116 22.2965 13.3154 22.2568C12.4865 22.2196 12.0366 22.0847 11.7368 21.9714C11.3401 21.8213 11.0567 21.642 10.7591 21.3522C10.4616 21.0624 10.2774 20.7872 10.1229 20.4007C10.0065 20.1092 9.86786 19.6711 9.83013 18.8639C9.7894 17.9912 9.78125 17.7291 9.78125 15.5183C9.78125 13.3076 9.7894 13.0468 9.83013 12.1741C9.86804 11.3669 10.0065 10.9288 10.1229 10.637C10.277 10.2506 10.4616 9.97469 10.7591 9.68493C11.0567 9.39518 11.3401 9.21581 11.7368 9.06541C12.0365 8.95158 12.4865 8.81705 13.3154 8.77997C14.0997 8.74547 14.4036 8.73512 15.9881 8.7334V8.73547ZM21.2888 10.1102C20.7256 10.1102 20.2686 10.5547 20.2686 11.1033C20.2686 11.6518 20.7256 12.0968 21.2888 12.0968C21.8521 12.0968 22.309 11.6518 22.309 11.1033C22.309 10.5548 21.8521 10.1099 21.2888 10.1099V10.1102ZM12.385 15.5225C12.385 13.1746 14.3397 11.2711 16.7507 11.271C19.1618 11.271 21.1161 13.1746 21.1161 15.5225C21.1161 17.8703 19.162 19.773 16.7509 19.773C14.3398 19.773 12.385 17.8703 12.385 15.5225Z" fill="#67D43D"/>
<path fill-rule="evenodd" clip-rule="evenodd" d="M16.7504 12.7632C18.3154 12.7632 19.5842 13.9986 19.5842 15.5227C19.5842 17.0467 18.3154 18.2823 16.7504 18.2823C15.1852 18.2823 13.9165 17.0467 13.9165 15.5227C13.9165 13.9986 15.1852 12.7632 16.7504 12.7632V12.7632Z" fill="#67D43D"/>
</svg>
