<svg width="47" height="41" viewBox="0 0 47 41" fill="none" xmlns="http://www.w3.org/2000/svg">
<path d="M44.08 0.95166H3.06516C1.47564 0.95166 0.182617 2.26252 0.182617 3.87387V32.0894C0.182617 33.7007 1.47564 35.0116 3.06516 35.0116H16.9371L16.376 39.5622H14.0512C13.6727 39.5622 13.366 39.8733 13.366 40.257C13.366 40.6406 13.6727 40.9517 14.0512 40.9517H33.0939C33.4725 40.9517 33.7792 40.6406 33.7792 40.257C33.7792 39.8733 33.4725 39.5622 33.0939 39.5622H30.7693L30.2081 35.0116H44.08C45.6694 35.0116 46.9626 33.7007 46.9626 32.0894V3.87387C46.9626 2.26252 45.6695 0.95166 44.08 0.95166ZM17.7572 39.5622L18.3183 35.0116H20.8403L21.0878 36.0147C21.3734 37.1728 22.3952 37.9816 23.5727 37.9816C24.7501 37.9816 25.772 37.1728 26.0576 36.0147L26.305 35.0116H28.827L29.388 39.5622H17.7572ZM22.253 35.0116H24.8921L24.7278 35.6777C24.5951 36.2162 24.1201 36.5922 23.5725 36.5922C23.0249 36.5922 22.55 36.2161 22.4172 35.6777L22.253 35.0116ZM45.5921 32.0894C45.5921 32.9346 44.9137 33.6222 44.08 33.6222H3.06516C2.23143 33.6222 1.55312 32.9346 1.55312 32.0894V3.87387C1.55312 3.02864 2.23143 2.34107 3.06516 2.34107H44.08C44.9137 2.34107 45.5921 3.02864 45.5921 3.87387V32.0894Z" fill="white"/>
<path d="M38.9532 3.92188H3.79756C3.41902 3.92188 3.1123 4.23282 3.1123 4.61658V31.347C3.1123 31.7307 3.41902 32.0417 3.79756 32.0417H5.26245C5.64098 32.0417 5.9477 31.7307 5.9477 31.347C5.94779 30.9633 5.64098 30.6523 5.26254 30.6523H4.4829V5.31129H38.9532C39.3318 5.31129 39.6385 5.00024 39.6385 4.61658C39.6385 4.23282 39.3318 3.92188 38.9532 3.92188Z" fill="white"/>
<path d="M43.3478 3.92188H41.8829C41.5043 3.92188 41.1976 4.23282 41.1976 4.61658C41.1976 5.00024 41.5043 5.31129 41.8829 5.31129H42.6625V30.6523H8.19209C7.81356 30.6523 7.50684 30.9633 7.50684 31.347C7.50684 31.7307 7.81356 32.0417 8.19209 32.0417H43.3477C43.7262 32.0417 44.0329 31.7307 44.0329 31.347V4.61658C44.033 4.23282 43.7262 3.92188 43.3478 3.92188Z" fill="white"/>
<path d="M32.9012 11.6134C32.7781 11.4538 32.5923 11.3567 32.3928 11.3475L16.2798 10.605C16.2672 10.6044 16.2549 10.6041 16.2422 10.6043C16.1468 10.2869 15.9452 10.0116 15.6724 9.82707L13.6991 8.49342C13.3843 8.28065 12.9588 8.36689 12.7489 8.68618C12.539 9.00546 12.6241 9.43674 12.939 9.6495L14.9121 10.983C14.9214 10.9893 14.9283 10.9988 14.9314 11.0097L17.4448 19.928C17.5232 20.206 17.6522 20.456 17.8179 20.6718L16.8983 22.5364C16.6769 22.9851 16.7001 23.5078 16.9603 23.9347C17.0547 24.0895 17.1744 24.2213 17.3119 24.3269C17.1319 24.6454 17.0284 25.0139 17.0284 25.4066C17.0284 26.6085 17.9929 27.5863 19.1784 27.5863C20.3639 27.5863 21.3285 26.6084 21.3285 25.4066C21.3285 25.1279 21.276 24.8615 21.1816 24.6163H27.429C27.3345 24.8615 27.282 25.1279 27.282 25.4066C27.282 26.6085 28.2466 27.5863 29.4321 27.5863C30.6176 27.5863 31.5821 26.6084 31.5821 25.4066C31.5821 25.058 31.5006 24.7285 31.3564 24.436C31.4947 24.3089 31.5821 24.1259 31.5821 23.9216C31.5821 23.5379 31.2754 23.2269 30.8969 23.2269H18.166C18.1562 23.2269 18.1397 23.2269 18.1259 23.2042C18.1121 23.1816 18.1195 23.1667 18.1239 23.1577L18.971 21.4401C19.1434 21.485 19.3231 21.5093 19.5069 21.5093C19.5916 21.5093 19.6771 21.5042 19.7632 21.494L29.392 20.3456C30.6356 20.1973 31.6361 19.2613 31.8817 18.0164L33.0335 12.1778C33.0727 11.9791 33.0244 11.773 32.9012 11.6134ZM29.4319 24.6165C29.8618 24.6165 30.2115 24.9711 30.2115 25.4068C30.2115 25.8426 29.8618 26.1971 29.4319 26.1971C29.002 26.1971 28.6524 25.8426 28.6524 25.4068C28.6524 24.971 29.002 24.6165 29.4319 24.6165ZM19.1782 24.6165C19.6081 24.6165 19.9578 24.971 19.9578 25.4068C19.9578 25.8426 19.6081 26.1971 19.1782 26.1971C18.7484 26.1971 18.3987 25.8426 18.3987 25.4068C18.3987 24.971 18.7484 24.6165 19.1782 24.6165ZM17.4978 15.0594L16.6391 12.0124L19.3787 12.1387L19.8537 15.0594H17.4978ZM19.6031 20.1142C19.221 20.1597 18.8679 19.9209 18.7624 19.5464L17.8894 16.4488H20.0797L20.6554 19.9887L19.6031 20.1142ZM23.6199 19.6351L22.018 19.8262L21.4688 16.4489H23.6199V19.6351ZM23.6199 15.0594H21.2428L20.7783 12.2032L23.6199 12.3342V15.0594ZM27.0902 19.2211L24.9904 19.4716V16.4488H27.3377L27.0902 19.2211ZM27.4618 15.0594H24.9904V12.3973L27.6884 12.5216L27.4618 15.0594ZM30.5377 17.7441C30.4089 18.3969 29.8841 18.888 29.2318 18.9658L28.4811 19.0553L28.7138 16.4489H30.7932L30.5377 17.7441ZM31.0674 15.0594H28.8379L29.0589 12.5848L31.5331 12.6988L31.0674 15.0594Z" fill="white"/>
</svg>
