<svg width="14" height="24" viewBox="0 0 14 24" fill="none" xmlns="http://www.w3.org/2000/svg">
<path d="M12.2009 0H1.7991C0.803604 0 0 0.771687 0 1.72165V21.9147C0 22.8638 0.803604 23.6346 1.7991 23.6346H12.2009C13.1946 23.6346 14 22.8638 14 21.9147V1.72165C14 0.771687 13.1946 0 12.2009 0ZM4.43333 1.04557H9.56847C9.6982 1.04557 9.80361 1.23074 9.80361 1.45983C9.80361 1.68893 9.6982 1.87496 9.56847 1.87496H4.43333C4.3027 1.87496 4.1991 1.68893 4.1991 1.45983C4.1991 1.23074 4.3027 1.04557 4.43333 1.04557ZM7.0009 21.9354C6.36757 21.9354 5.85225 21.4427 5.85225 20.8364C5.85225 20.2301 6.36757 19.7392 7.0009 19.7392C7.63243 19.7392 8.14775 20.2301 8.14775 20.8364C8.14775 21.4427 7.63243 21.9354 7.0009 21.9354ZM12.6523 18.1725H1.34865V2.90502H12.6523V18.1725Z" fill="#67D43D"/>
</svg>
