<svg width="64" height="64" viewBox="0 0 64 64" fill="none" xmlns="http://www.w3.org/2000/svg">
<path d="M23.2861 15C23.9761 15 24.5361 14.4399 24.5361 13.75C24.5361 13.0601 23.9761 12.5 23.2861 12.5C22.5962 12.5 22.0361 13.0601 22.0361 13.75C22.0361 14.4399 22.5962 15 23.2861 15Z" fill="#67D43D"/>
<path d="M54.5727 22.5361C54.5727 20.2324 53.3657 18.1299 51.4623 16.9487C51.7587 16.1914 51.9125 15.3813 51.9125 14.5537C51.9125 11.3286 49.5927 8.63085 46.4892 8.08299C45.9443 5.00585 43.2499 2.66113 40.019 2.66113C39.1909 2.66113 38.3808 2.81445 37.624 3.11083C36.4428 1.20703 34.3403 0 32.0361 0C29.7324 0 27.6294 1.20703 26.4487 3.11083C25.6914 2.81445 24.8818 2.66113 24.0537 2.66113C22.2954 2.66113 20.6435 3.34667 19.4033 4.5913C18.4419 5.55614 17.8174 6.76659 17.5898 8.08104C16.2705 8.31102 15.0557 8.93846 14.0884 9.90379C12.8447 11.1455 12.1602 12.7969 12.1602 14.5537C12.1602 15.3813 12.3135 16.1914 12.6103 16.9487C10.707 18.1294 9.5 20.2324 9.5 22.5361C9.5 24.8408 10.707 26.9438 12.6103 28.1245C12.3135 28.8823 12.1602 29.6914 12.1602 30.5185C12.1602 33.7499 14.5034 36.4443 17.5801 36.9902C17.9155 38.9072 19.0845 40.5742 20.7861 41.5449V62.7499C20.7861 63.2558 21.0908 63.7113 21.5576 63.9047C22.0249 64.098 22.5625 63.9911 22.9199 63.6337L32.0361 54.518L41.1523 63.6337C41.5102 63.9916 42.0473 64.098 42.5146 63.9047C42.9814 63.7113 43.2861 63.2558 43.2861 62.7499V41.5434C44.9853 40.5732 46.1459 38.9081 46.4711 36.9951C47.7914 36.767 49.0077 36.1415 49.977 35.1767C51.225 33.934 51.9125 32.2797 51.9125 30.5185C51.9125 29.6914 51.7587 28.8818 51.4623 28.1245C53.3657 26.9438 54.5727 24.8408 54.5727 22.5361ZM23.2861 42.3666C23.5395 42.3959 23.7954 42.4125 24.0537 42.4125C24.645 42.4125 25.226 42.3329 25.7861 42.1801V57.2323L23.2861 59.7323V42.3666ZM31.1523 51.8661L28.2861 54.7318V43.893C29.3593 44.6425 30.6587 45.0737 32.0361 45.0737C33.4057 45.0737 34.7075 44.6435 35.7861 43.8945V54.7323L32.9204 51.8661C32.4321 51.3778 31.6406 51.3778 31.1523 51.8661ZM38.2861 57.2318V42.1801C38.8466 42.3329 39.4282 42.4125 40.019 42.4125C40.2768 42.4125 40.5327 42.3959 40.7861 42.3661V59.7323L38.2861 57.2318ZM49.3495 26.3808C48.9848 26.5087 48.6996 26.7983 48.5776 27.1655C48.4555 27.5322 48.5102 27.935 48.7255 28.2563C49.1752 28.9262 49.4125 29.7084 49.4125 30.519C49.4125 31.6103 48.9868 32.6352 48.2133 33.4047C47.4438 34.1704 46.4238 34.5913 45.3388 34.5913C45.3305 34.5913 45.3227 34.5913 45.3139 34.5913C44.9814 34.5913 44.6625 34.7236 44.4277 34.9594C44.1918 35.1962 44.061 35.518 44.0639 35.8525C44.0786 37.5053 43.0966 38.9799 41.562 39.6098C41.5615 39.6098 41.5615 39.6098 41.5615 39.6098C41.0722 39.8105 40.5532 39.9125 40.019 39.9125C39.208 39.9125 38.4248 39.6752 37.7539 39.226C37.5761 39.1074 37.373 39.0395 37.165 39.0219C37.164 39.0214 37.163 39.0214 37.1621 39.0214C37.1293 39.0185 37.0966 39.0165 37.0639 39.0165C37.0546 39.016 37.0459 39.0151 37.0366 39.0151C36.4282 39.0151 35.9218 39.4496 35.81 40.0253C35.1928 41.5546 33.6953 42.5737 32.0366 42.5737C30.3183 42.5737 28.7959 41.4975 28.2334 39.893C28.1884 39.7431 28.1162 39.6059 28.0219 39.4858C28.0215 39.4853 28.021 39.4843 28.02 39.4833C27.9951 39.4516 27.9692 39.4213 27.9414 39.3925C27.9375 39.3886 27.9341 39.3842 27.9306 39.3803C27.9067 39.3559 27.8813 39.3329 27.8554 39.311C27.8476 39.3041 27.8403 39.2963 27.832 39.2895C27.8242 39.2831 27.8154 39.2773 27.8071 39.2709C27.6767 39.1679 27.5263 39.0898 27.3623 39.0453C27.0107 38.9496 26.6352 39.0121 26.3335 39.2158C25.6601 39.6718 24.8716 39.9125 24.0537 39.9125C23.5185 39.9125 22.999 39.811 22.5102 39.6108C20.9721 38.9804 19.9795 37.5014 19.9814 35.8427C19.9819 35.5112 19.8501 35.1928 19.6157 34.958C19.3813 34.7231 19.063 34.5913 18.7314 34.5913C16.4863 34.5913 14.6601 32.7646 14.6601 30.519C14.6601 29.7089 14.8979 28.9262 15.3472 28.2563C15.5625 27.935 15.6172 27.5322 15.4951 27.1655C15.373 26.7983 15.0879 26.5087 14.7231 26.3808C13.0947 25.809 12.0005 24.2641 12.0005 22.5361C12.0005 20.809 13.0942 19.2646 14.7231 18.6933C15.0879 18.5654 15.373 18.2754 15.4951 17.9087C15.6172 17.5415 15.5625 17.1386 15.3472 16.8174C14.8979 16.1474 14.6601 15.3647 14.6601 14.5537C14.6601 13.4653 15.0845 12.4424 15.855 11.6733C16.6245 10.9053 17.6465 10.4824 18.7334 10.4824H18.7427C19.0747 10.4824 19.3931 10.3506 19.6274 10.1157C19.8623 9.88035 19.9941 9.56102 19.9927 9.22801C19.9892 8.14403 20.4087 7.12401 21.1738 6.35595C21.9419 5.58544 22.9648 5.16112 24.0537 5.16112C24.8662 5.16112 25.6489 5.39794 26.3178 5.84667C26.6386 6.062 27.0415 6.11669 27.4087 5.99462C27.7758 5.87255 28.0654 5.58739 28.1933 5.22265C28.7651 3.59423 30.309 2.5 32.0361 2.5C33.7631 2.5 35.3076 3.59423 35.8794 5.22265C36.0073 5.58739 36.2973 5.87255 36.664 5.99462C37.0312 6.11669 37.4335 6.062 37.7548 5.84667C38.4238 5.39843 39.2065 5.16112 40.019 5.16112C42.2636 5.16112 44.0898 6.98778 44.0898 9.23241C44.0898 9.92284 44.6498 10.4824 45.3398 10.4824C47.6015 10.4824 49.4125 12.3095 49.4125 14.5537C49.4125 15.3642 49.1747 16.1474 48.7255 16.8174C48.5102 17.1386 48.4555 17.5415 48.5776 17.9087C48.6996 18.2754 48.9848 18.5649 49.3495 18.6933C50.9784 19.2646 52.0722 20.809 52.0722 22.5361C52.0727 24.2641 50.9784 25.809 49.3495 26.3808Z" fill="#67D43D"/>
<path d="M32.0361 8.75C30.2724 8.75 28.5522 9.08057 26.9233 9.73193C26.2822 9.98828 25.9707 10.7158 26.227 11.3564C26.4834 11.9976 27.2109 12.3091 27.8515 12.0532C29.1841 11.52 30.5918 11.25 32.0361 11.25C38.2397 11.25 43.2861 16.2969 43.2861 22.5C43.2861 28.7031 38.2397 33.75 32.0361 33.75C25.833 33.75 20.7861 28.7031 20.7861 22.5C20.7861 21.0556 21.0566 19.6479 21.5893 18.3154C21.8457 17.6743 21.5342 16.9468 20.8931 16.6904C20.2519 16.4346 19.5249 16.7456 19.2681 17.3867C18.6167 19.0161 18.2861 20.7363 18.2861 22.5C18.2861 30.0815 24.4546 36.25 32.0361 36.25C39.6181 36.25 45.7861 30.0815 45.7861 22.5C45.7861 14.9184 39.6181 8.75 32.0361 8.75Z" fill="#67D43D"/>
<path d="M38.2861 22.5C38.2861 23.1904 38.8462 23.75 39.5361 23.75C40.2265 23.75 40.7861 23.1904 40.7861 22.5C40.7861 17.6753 36.8608 13.75 32.0361 13.75C31.3462 13.75 30.7861 14.3096 30.7861 15C30.7861 15.6904 31.3462 16.25 32.0361 16.25C35.4824 16.25 38.2861 19.0537 38.2861 22.5Z" fill="#67D43D"/>
</svg>
