<svg width="64" height="64" viewBox="0 0 64 64" fill="none" xmlns="http://www.w3.org/2000/svg">
<g clip-path="url(#clip0)">
<path d="M58.8387 49.5485H56.7742V28.9033H54.7097V49.5485H51.6129V28.9033H49.5484V49.5485H46.4516V28.9033H44.3871V49.5485H42.3226V53.6775H38.1935V64.0001H62.9677V53.6775H58.8387V49.5485ZM44.3871 51.613H56.7742V53.6775H44.3871V51.613ZM60.9032 55.742V61.9356H40.2581V55.742H60.9032Z" fill="#67D43D"/>
<path d="M50.5806 6.1936C46.5961 6.1936 43.3548 9.43489 43.3548 13.4194C43.3548 17.4039 46.5961 20.6452 50.5806 20.6452C54.5651 20.6452 57.8064 17.4039 57.8064 13.4194C57.8064 9.43489 54.5651 6.1936 50.5806 6.1936ZM50.5806 18.5807C47.7347 18.5807 45.4193 16.2653 45.4193 13.4194C45.4193 10.5735 47.7347 8.25812 50.5806 8.25812C53.4266 8.25812 55.7419 10.5735 55.7419 13.4194C55.7419 16.2653 53.4266 18.5807 50.5806 18.5807Z" fill="#67D43D"/>
<path d="M60.5461 8.771L59.8927 10.7292L61.9355 11.4105V15.428L59.4292 16.2631L59.2558 16.7204C59.1918 16.8897 59.1257 17.0569 59.0524 17.22L58.8511 17.667L60.032 20.0278L57.1913 22.8685L54.8305 21.6876L54.3835 21.8889C54.2194 21.9622 54.0522 22.0283 53.8839 22.0933L53.4276 22.2667L52.5895 24.7741H48.5719L47.7358 22.2678L47.2795 22.0943C47.1113 22.0303 46.944 21.9643 46.7799 21.89L46.3329 21.6887L43.9722 22.8696L40.6049 19.5024L39.1453 20.962L43.5644 25.3811L46.1647 24.0804L47.0844 26.8386H54.0769L54.9967 24.0804L57.5969 25.3811L62.5425 20.4355L61.2418 17.8353L64 16.9155V9.923L60.5461 8.771Z" fill="#67D43D"/>
<path d="M40.6152 18.0666L41.2687 16.1084L39.2258 15.4281V11.4106L41.7321 10.5745L41.9056 10.1182C41.9696 9.94993 42.0356 9.78168 42.1099 9.61858L42.3112 9.17161L41.1303 6.81084L43.9711 3.97006L46.3329 5.15097L46.7809 4.94968C46.944 4.87535 47.1112 4.81032 47.2795 4.74529L47.7357 4.57187L48.5719 2.06452H52.5894L53.4256 4.57084L53.8818 4.74426C54.0501 4.80826 54.2173 4.87432 54.3804 4.94865L54.8284 5.14994L57.1902 3.96903L60.5574 7.33626L62.017 5.87664L57.5979 1.45755L54.9977 2.75819L54.0769 0H47.0844L46.1646 2.75819L43.5644 1.45755L39.8606 5.16129H17.5484C14.305 5.16129 11.6418 7.66761 11.3806 10.8449L0 20.1559V27.871L3.34039 40.2581H8.25807V38.1935H26.8387V40.2581H31.7564L35.0606 28.1425L35.0968 20.1559L29.3863 15.4839H37.1613V16.9156L40.6152 18.0666ZM17.5484 7.22581C19.8256 7.22581 21.6774 9.07768 21.6774 11.3548C21.6774 13.632 19.8256 15.4839 17.5484 15.4839C15.2712 15.4839 13.4194 13.632 13.4194 11.3548C13.4194 9.07768 15.2712 7.22581 17.5484 7.22581ZM6.19355 23.2041V38.1935H4.91768L2.06452 27.7326V21.1345L11.6645 13.279C12.2116 14.9481 13.4493 16.3045 15.039 17.0116L6.19355 23.2041ZM26.8387 36.129H8.25807V34.0645H10.9605L11.9928 32H13.8137L14.8459 34.0645H20.2508L21.2831 32H23.104L24.1363 34.0645H26.8387V36.129ZM26.8387 32H25.4121L24.3799 29.9355H20.0072L18.975 32H16.1218L15.0896 29.9355H10.7169L9.68465 32H8.25807V24.2797L17.5484 17.7765L26.8387 24.2797V32ZM33.0323 21.1345V27.7326L30.1791 38.1935H28.9032V23.2041L20.0578 17.0116C21.6475 16.3035 22.8852 14.9471 23.4323 13.279L33.0323 21.1345ZM26.8635 13.4194L23.7161 10.8449C23.6026 9.45858 23.0297 8.20335 22.1523 7.22581H39.0307L39.9195 9.00336L37.1613 9.9231V13.4194H26.8635Z" fill="#67D43D"/>
<path d="M25.8064 51.6128H22.7097V46.4515H28.9032V42.3225H26.8387V44.387H8.25806V42.3225H6.19354V46.4515H12.3871V51.6128H9.29032V55.7419H5.16129V63.9999H29.9355V55.7419H25.8064V51.6128ZM14.4516 46.4515H20.6452V51.6128H14.4516V46.4515ZM11.3548 53.6773H23.7419V55.7419H11.3548V53.6773ZM27.871 57.8064V61.9354H7.2258V57.8064H27.871Z" fill="#67D43D"/>
<path d="M18.5806 10.3225H16.5161V12.387H18.5806V10.3225Z" fill="#67D43D"/>
</g>
<defs>
<clipPath id="clip0">
<rect width="64" height="64" fill="white"/>
</clipPath>
</defs>
</svg>
