<svg width="35" height="36" viewBox="0 0 35 36" fill="none" xmlns="http://www.w3.org/2000/svg">
<path d="M18.6976 22.7933C19.3222 22.7447 19.8916 22.4261 20.2612 21.9179L25.879 14.1515C26.0512 13.9133 26.0254 13.5845 25.8166 13.3757C25.6078 13.1675 25.279 13.1417 25.0408 13.3133L17.2732 18.9329C16.7668 19.3013 16.4482 19.8707 16.3996 20.4953C16.351 21.1199 16.5772 21.7313 17.0194 22.1735C17.422 22.5767 17.965 22.7999 18.5296 22.7999C18.5854 22.7999 18.6412 22.7975 18.6976 22.7933ZM17.596 20.5889C17.617 20.3147 17.7574 20.0645 17.9782 19.9037L22.7164 16.4759L19.2898 21.2129C19.1278 21.4355 18.8776 21.5753 18.6034 21.5969C18.3304 21.6149 18.0622 21.5201 17.8672 21.3251C17.674 21.1313 17.5744 20.8625 17.596 20.5889Z" fill="#67D43D"/>
<path d="M32.1376 11.7384C32.1316 11.7258 32.1316 11.7126 32.125 11.7C32.1178 11.688 32.1064 11.6814 32.0986 11.67C31.492 10.6296 30.7744 9.6618 29.9596 8.7846L31.2484 7.4964L32.0968 8.3448L34.642 5.799L32.0968 3.2538L29.551 5.799L30.4 6.648L29.1112 7.9362C28.234 7.1214 27.2668 6.4032 26.2258 5.7966C26.2144 5.7888 26.2078 5.7774 26.1958 5.7702C26.1832 5.763 26.17 5.7636 26.1574 5.757C24.3016 4.6878 22.2166 3.9756 19.9936 3.7146V3H20.8936C21.721 3 22.3936 2.3274 22.3936 1.5C22.3936 0.6726 21.7204 0 20.893 0H15.493C14.6656 0 13.993 0.6726 13.993 1.5C13.993 2.3274 14.6656 3 15.493 3H16.393V3.6936C15.745 3.7626 15.0982 3.8682 14.4586 4.0146C14.1358 4.0884 13.9336 4.4106 14.008 4.7334C14.0818 5.0562 14.404 5.259 14.7268 5.184C15.2788 5.0574 15.8362 4.962 16.3948 4.8978L17.0386 4.848C17.2354 4.833 17.4166 4.8222 17.593 4.8138V6C17.593 6.3318 17.8612 6.6 18.193 6.6C18.5248 6.6 18.793 6.3318 18.793 6V4.818C21.0496 4.9218 23.176 5.5278 25.0666 6.525L24.475 7.5492C24.3094 7.8366 24.4078 8.2032 24.6946 8.3688C24.7888 8.4234 24.892 8.4492 24.994 8.4492C25.2016 8.4492 25.4032 8.3418 25.5142 8.1492L26.104 7.1274C27.9814 8.3184 29.5762 9.9132 30.7672 11.7906L29.7454 12.3804C29.4592 12.546 29.3608 12.9126 29.527 13.2C29.6386 13.3926 29.8396 13.5 30.0472 13.5C30.1492 13.5 30.2524 13.4742 30.3466 13.4196L31.3708 12.828C32.3818 14.7456 32.9896 16.9068 33.0802 19.1994H31.8952C31.5634 19.1994 31.2952 19.4676 31.2952 19.7994C31.2952 20.1312 31.5634 20.3994 31.8952 20.3994H33.0802C32.9896 22.692 32.3818 24.8532 31.3708 26.7708L30.3466 26.1792C30.0598 26.0136 29.6926 26.1108 29.527 26.3988C29.3614 26.6862 29.4598 27.0528 29.7466 27.2184L30.7684 27.8082C29.5774 29.6856 27.9826 31.2804 26.1052 32.4714L25.5154 31.4496C25.3492 31.1616 24.9814 31.0638 24.6958 31.23C24.4084 31.3956 24.31 31.7628 24.4762 32.0496L25.0678 33.0738C23.1772 34.071 21.0508 34.677 18.7942 34.7808V33.6C18.7942 33.2682 18.526 33 18.1942 33C17.8624 33 17.5942 33.2682 17.5942 33.6V34.7856C16.636 34.7526 15.6748 34.6326 14.7286 34.4154C14.4058 34.338 14.0836 34.5432 14.0098 34.866C13.9354 35.1888 14.1376 35.511 14.4604 35.5848C15.658 35.8608 16.8814 36 18.0952 36C18.1246 36 18.1528 35.9982 18.1822 35.9976C18.1864 35.9976 18.1894 36 18.193 36C18.1978 36 18.202 35.997 18.2068 35.997C21.091 35.9772 23.797 35.1984 26.1382 33.8532C26.1568 33.8448 26.1766 33.8406 26.1946 33.8298C26.2066 33.8226 26.2132 33.8112 26.2246 33.8034C28.648 32.391 30.673 30.3684 32.0884 27.9468C32.0998 27.9306 32.1142 27.918 32.1244 27.9C32.1316 27.8874 32.131 27.8742 32.137 27.8616C33.5074 25.4856 34.2952 22.734 34.2952 19.8C34.2952 16.866 33.5074 14.1144 32.1376 11.7384ZM32.0962 4.9506L32.9446 5.799L32.0962 6.648L31.2472 5.799L32.0962 4.9506ZM17.593 3.6126V1.8H15.493C15.328 1.8 15.193 1.665 15.193 1.5C15.193 1.335 15.328 1.2 15.493 1.2H20.893C21.058 1.2 21.193 1.335 21.193 1.5C21.193 1.665 21.058 1.8 20.893 1.8H18.793V3.6126C18.5842 3.6042 18.385 3.6 18.193 3.6C18.1762 3.6 18.157 3.6012 18.1402 3.6012C18.1252 3.6012 18.1102 3.6 18.0952 3.6C17.9968 3.6 17.8984 3.6066 17.8 3.6084C17.7304 3.6102 17.665 3.6096 17.593 3.6126Z" fill="#67D43D"/>
<path d="M12.7931 8.3999H9.79305C9.46125 8.3999 9.19305 8.6681 9.19305 8.9999C9.19305 9.3317 9.46125 9.5999 9.79305 9.5999H12.7931C13.1249 9.5999 13.3931 9.3317 13.3931 8.9999C13.3931 8.6681 13.1249 8.3999 12.7931 8.3999Z" fill="#67D43D"/>
<path d="M12.7931 12.6001H6.79305C6.46125 12.6001 6.19305 12.8683 6.19305 13.2001C6.19305 13.5319 6.46125 13.8001 6.79305 13.8001H12.7931C13.1249 13.8001 13.3931 13.5319 13.3931 13.2001C13.3931 12.8683 13.1249 12.6001 12.7931 12.6001Z" fill="#67D43D"/>
<path d="M12.7931 16.8H3.79305C3.46125 16.8 3.19305 17.0682 3.19305 17.4C3.19305 17.7318 3.46125 18 3.79305 18H12.7931C13.1249 18 13.3931 17.7318 13.3931 17.4C13.3931 17.0682 13.1249 16.8 12.7931 16.8Z" fill="#67D43D"/>
<path d="M12.793 21H1.39303C1.06123 21 0.79303 21.2682 0.79303 21.6C0.79303 21.9318 1.06123 22.2 1.39303 22.2H12.793C13.1248 22.2 13.393 21.9318 13.393 21.6C13.393 21.2682 13.1248 21 12.793 21Z" fill="#67D43D"/>
<path d="M12.793 25.2H4.99301C4.66121 25.2 4.39301 25.4682 4.39301 25.8C4.39301 26.1318 4.66121 26.4 4.99301 26.4H12.793C13.1248 26.4 13.393 26.1318 13.393 25.8C13.393 25.4682 13.1248 25.2 12.793 25.2Z" fill="#67D43D"/>
<path d="M12.793 29.3999H8.59304C8.26124 29.3999 7.99304 29.6681 7.99304 29.9999C7.99304 30.3317 8.26124 30.5999 8.59304 30.5999H12.793C13.1248 30.5999 13.393 30.3317 13.393 29.9999C13.393 29.6681 13.1248 29.3999 12.793 29.3999Z" fill="#67D43D"/>
</svg>
