<svg width="31" height="30" viewBox="0 0 31 30" fill="none" xmlns="http://www.w3.org/2000/svg">
<path fill-rule="evenodd" clip-rule="evenodd" d="M30.8077 15C30.8077 23.2843 23.9112 30 15.4038 30C6.89654 30 0 23.2843 0 15C0 6.71573 6.89654 0 15.4038 0C23.9112 0 30.8077 6.71573 30.8077 15ZM12.8415 18.0512L12.8417 18.0513L12.5796 21.8749C12.9542 21.8749 13.1254 21.7126 13.3324 21.5164L13.3498 21.4999L15.2 19.748L19.0492 22.5173C19.7576 22.8979 20.2689 22.7009 20.4453 21.8769L22.9722 10.2815C23.2309 9.27147 22.5768 8.81337 21.8992 9.11297L7.06141 14.6843C6.04859 15.0799 6.05449 15.6302 6.87679 15.8753L10.6845 17.0326L19.4997 11.617C19.9159 11.3713 20.2978 11.5034 19.9843 11.7743L12.8419 18.0509L12.8417 18.0508L12.8417 18.051L12.8415 18.0512Z" fill="#67D43D"/>
</svg>
