<svg width="30" height="50" viewBox="0 0 30 50" fill="none" xmlns="http://www.w3.org/2000/svg">
<path d="M29.2726 6.3618V8.49273H21.0154V6.3618H29.2726ZM25.8099 11.006H21.0154V13.1369H25.8099V11.006ZM21.0154 17.781H29.2726V15.6503H21.0154V17.781ZM25.8099 20.2956H21.0154V22.4265H25.8099V20.2956ZM21.0154 27.0707H29.2726V24.9397H21.0154V27.0707ZM22.3025 39.2124C22.3025 45.1607 17.4633 50 11.5149 50C5.56657 50 0.727295 45.1607 0.727295 39.2124C0.727295 35.3577 2.75163 31.8544 6.05446 29.9164V5.46045C6.05463 2.4494 8.50402 0 11.5149 0C14.5258 0 16.9754 2.4494 16.9754 5.46045V29.9166C20.2782 31.8524 22.3025 35.3567 22.3025 39.2124ZM20.1716 39.2124C20.1716 35.9415 18.354 32.9849 15.4271 31.4986L14.8444 31.2024V5.46145C14.8444 3.62461 13.3508 2.13193 11.5149 2.13193C9.67923 2.13193 8.18539 3.62461 8.18539 5.46145V31.2024L7.60268 31.4986C4.67584 32.986 2.85823 35.9425 2.85823 39.2124C2.85823 43.9855 6.74178 47.8691 11.5149 47.8691C16.288 47.8691 20.1716 43.9855 20.1716 39.2124ZM18.3966 39.2124C18.3966 43.0064 15.3099 46.0931 11.5149 46.0931C7.72088 46.0931 4.63423 43.0064 4.63423 39.2124C4.63423 36.1024 6.73532 33.3716 9.74405 32.5716L10.1393 32.4661V19.3239H12.8914V32.4651L13.2866 32.5717C16.2967 33.3716 18.3966 36.1035 18.3966 39.2124ZM11.8559 34.6258C11.6918 33.897 10.9589 33.4175 10.2119 33.588C7.60367 34.1781 5.78175 36.4593 5.78175 39.1358C5.78175 39.8932 6.39862 40.5103 7.15623 40.5103C7.91385 40.5103 8.53071 39.8934 8.53071 39.1358C8.53071 37.7752 9.49174 36.5692 10.8181 36.2698C11.5554 36.1002 12.022 35.363 11.8559 34.6258Z" fill="#67D43D"/>
</svg>
