<svg width="64" height="64" viewBox="0 0 64 64" fill="none" xmlns="http://www.w3.org/2000/svg">
<g clip-path="url(#clip0)">
<path d="M14.5 51.5C12.4321 51.5 10.75 53.1821 10.75 55.25C10.75 57.3179 12.4321 59 14.5 59C16.5679 59 18.25 57.3179 18.25 55.25C18.25 53.1821 16.5679 51.5 14.5 51.5ZM14.5 56.5C13.8105 56.5 13.25 55.9395 13.25 55.25C13.25 54.5605 13.8105 54 14.5 54C15.1895 54 15.75 54.5605 15.75 55.25C15.75 55.9395 15.1895 56.5 14.5 56.5Z" fill="#67D43D"/>
<path d="M60.25 51.5H58.25V24.5C58.25 23.8096 57.6904 23.25 57 23.25H50.75V6.25C50.75 5.55957 50.1904 5 49.5 5C44.2334 5 29.3882 5 24.5 5C23.8096 5 23.25 5.55957 23.25 6.25V51.5H22.4067C21.542 49.6704 20.0801 48.2085 18.25 47.3433V3.75C18.25 1.68213 16.5679 0 14.5 0H3.75C1.68213 0 0 1.68213 0 3.75C0 5.81787 1.68213 7.5 3.75 7.5H10.75V47.3433C7.72656 48.7788 5.75 51.8511 5.75 55.25C5.75 60.0747 9.67529 64 14.5 64C17.8989 64 20.9712 62.0234 22.4067 59H60.25C62.3179 59 64 57.3179 64 55.25C64 53.1821 62.3179 51.5 60.25 51.5ZM55.75 51.5H25.75V25.75H34.5V39C34.5 39.4736 34.7676 39.9062 35.1909 40.1182C35.6143 40.3301 36.1211 40.2842 36.5 40L40.75 36.8125L45 40C45.3794 40.2847 45.8862 40.3296 46.3091 40.1182C46.7324 39.9062 47 39.4736 47 39V25.75H55.75V51.5ZM37 25.75H44.5V36.5L41.5 34.25C41.2778 34.0835 41.0137 34 40.75 34C40.4863 34 40.2222 34.0835 40 34.25L37 36.5V25.75ZM34.5 7.5H39.5V14.6641L37.6934 13.46C37.4834 13.3198 37.2417 13.25 37 13.25C36.7583 13.25 36.5166 13.3198 36.3066 13.46L34.5 14.6641V7.5ZM32 7.5V17C32 17.4609 32.2539 17.8843 32.6602 18.1021C33.0669 18.3198 33.5601 18.2954 33.9434 18.04L37 16.0024L40.0566 18.04C40.4404 18.2959 40.9341 18.3193 41.3398 18.1021C41.7461 17.8848 42 17.4609 42 17V7.5H48.25V23.25C41.3491 23.25 32.564 23.25 25.75 23.25V7.5H32ZM3.75 5C3.06055 5 2.5 4.43945 2.5 3.75C2.5 3.06055 3.06055 2.5 3.75 2.5H14.5C15.1895 2.5 15.75 3.06055 15.75 3.75V46.5903C15.3379 46.5312 14.9209 46.5 14.5 46.5C14.0791 46.5 13.6621 46.5312 13.25 46.5903V6.25C13.25 5.55957 12.6904 5 12 5H3.75ZM14.5 61.5C11.0537 61.5 8.25 58.6963 8.25 55.25C8.25 51.8408 11.0078 49 14.5 49C17.9912 49 20.75 51.8438 20.75 55.25C20.75 58.7422 17.9092 61.5 14.5 61.5ZM60.25 56.5H23.1597C23.2188 56.0879 23.25 55.6709 23.25 55.25C23.25 54.8291 23.2183 54.4121 23.1597 54H60.25C60.9395 54 61.5 54.5605 61.5 55.25C61.5 55.9395 60.9395 56.5 60.25 56.5Z" fill="#67D43D"/>
<path d="M52 49C52.6904 49 53.25 48.4404 53.25 47.75V45.25C53.25 44.5596 52.6904 44 52 44C51.3096 44 50.75 44.5596 50.75 45.25V47.75C50.75 48.4404 51.3096 49 52 49Z" fill="#67D43D"/>
<path d="M52 39C52.6899 39 53.25 39.5601 53.25 40.25C53.25 40.9399 52.6899 41.5 52 41.5C51.3101 41.5 50.75 40.9399 50.75 40.25C50.75 39.5601 51.3101 39 52 39Z" fill="#67D43D"/>
<path d="M47 44C46.3096 44 45.75 44.5596 45.75 45.25V47.75C45.75 48.4404 46.3096 49 47 49C47.6904 49 48.25 48.4404 48.25 47.75V45.25C48.25 44.5596 47.6904 44 47 44Z" fill="#67D43D"/>
</g>
<defs>
<clipPath id="clip0">
<rect width="64" height="64" fill="white"/>
</clipPath>
</defs>
</svg>
