<svg width="32" height="30" viewBox="0 0 32 30" fill="none" xmlns="http://www.w3.org/2000/svg">
<path fill-rule="evenodd" clip-rule="evenodd" d="M15.75 0C24.2573 0 31.1539 6.71573 31.1539 15C31.1539 23.2843 24.2573 30 15.75 30C7.24273 30 0.346191 23.2843 0.346191 15C0.346191 6.71573 7.24273 0 15.75 0ZM16.6725 6.11031C17.7199 6.2376 18.5663 6.48331 19.495 6.92442C20.4084 7.35962 20.993 7.77111 21.7664 8.52008C22.491 9.22763 22.8929 9.76348 23.3192 10.5953C23.9129 11.7558 24.2509 13.1354 24.3087 14.6541C24.33 15.1721 24.3148 15.2876 24.193 15.4356C23.9616 15.7228 23.4531 15.6754 23.2796 15.3528C23.2248 15.2462 23.2095 15.1544 23.1913 14.7399C23.1608 14.1034 23.1152 13.692 23.0238 13.2005C22.6646 11.2733 21.7146 9.73387 20.1983 8.62962C18.9347 7.70598 17.6285 7.25598 15.9174 7.15829C15.3389 7.12573 15.2385 7.10503 15.1075 7.00732C14.8639 6.82081 14.8518 6.38268 15.0862 6.17841C15.2293 6.05109 15.3298 6.03334 15.8261 6.04814C16.0849 6.05702 16.4655 6.08662 16.6725 6.11031ZM9.71227 6.42959C9.81886 6.46511 9.98327 6.54798 10.0777 6.6072C10.6561 6.98023 12.2668 8.98441 12.7936 9.98506C13.095 10.5564 13.1954 10.9797 13.1011 11.2936C13.0036 11.631 12.8423 11.8087 12.1207 12.3741C11.8314 12.6021 11.5604 12.8359 11.5178 12.8981C11.4082 13.0521 11.3199 13.354 11.3199 13.5672C11.323 14.0616 11.6518 14.9586 12.0841 15.6484C12.419 16.1842 13.0188 16.871 13.6126 17.398C14.3098 18.0197 14.9249 18.443 15.6191 18.7775C16.5112 19.2097 17.0562 19.3193 17.4551 19.1387C17.5555 19.0943 17.6621 19.0351 17.6956 19.0085C17.726 18.9818 17.9605 18.7035 18.2162 18.3957C18.7095 17.7917 18.8221 17.694 19.1601 17.5815C19.5894 17.4394 20.0279 17.4779 20.4693 17.697C20.8043 17.8657 21.535 18.3068 22.0069 18.6265C22.628 19.0499 23.9555 20.1038 24.1352 20.314C24.4518 20.6929 24.5067 21.1784 24.2935 21.7143C24.0682 22.2797 23.1913 23.3396 22.5793 23.7925C22.0252 24.2011 21.6324 24.3579 21.1148 24.3816C20.6886 24.4023 20.512 24.3668 19.9669 24.1477C15.6922 22.4336 12.279 19.8759 9.56916 16.3618C8.15338 14.5264 7.07553 12.6228 6.33867 10.6482C5.9094 9.4966 5.8881 8.99628 6.24124 8.40716C6.39351 8.1585 7.04204 7.54271 7.51396 7.19932C8.29953 6.6309 8.66183 6.4207 8.95109 6.36151C9.14899 6.32005 9.49302 6.35261 9.71227 6.42959ZM16.8827 8.25621C18.7309 8.51967 20.1619 9.35453 21.0997 10.7104C21.6264 11.4742 21.9552 12.3712 22.0679 13.3333C22.1075 13.6856 22.1075 14.328 22.0649 14.4346C22.0252 14.5353 21.8974 14.6715 21.7877 14.7277C21.669 14.7869 21.4163 14.781 21.2763 14.7099C21.0418 14.5945 20.9718 14.4109 20.9718 13.9136C20.9718 13.1468 20.7678 12.3386 20.4146 11.711C20.0127 10.9946 19.4281 10.4025 18.7157 9.991C18.1037 9.63575 17.1994 9.37229 16.3742 9.30717C16.0758 9.28346 15.9114 9.22426 15.7988 9.09697C15.6253 8.90453 15.6069 8.64401 15.7531 8.42792C15.9114 8.18812 16.155 8.14963 16.8827 8.25621ZM17.5312 10.4915C18.131 10.6158 18.5908 10.8379 18.9835 11.1961C19.4889 11.6608 19.7661 12.2233 19.8878 13.0315C19.97 13.5585 19.9365 13.7657 19.7447 13.9374C19.5651 14.0973 19.2332 14.1032 19.0322 13.9522C18.8861 13.8456 18.8404 13.7332 18.8069 13.4283C18.7674 13.0227 18.6943 12.7385 18.5695 12.475C18.3015 11.9155 17.8296 11.6253 17.0319 11.5306C16.6573 11.4862 16.5447 11.4447 16.4229 11.3056C16.2006 11.0481 16.2859 10.6306 16.5934 10.4767C16.7091 10.4204 16.7579 10.4145 17.0136 10.4293C17.1719 10.4382 17.4064 10.4648 17.5312 10.4915Z" fill="#67D43D"/>
</svg>
