<svg width="32" height="32" viewBox="0 0 32 32" fill="none" xmlns="http://www.w3.org/2000/svg">
<path fill-rule="evenodd" clip-rule="evenodd" d="M15.9403 0C7.13672 0 0 6.94961 0 15.5224C0 24.0952 7.13672 31.0448 15.9403 31.0448C24.7439 31.0448 31.8806 24.0952 31.8806 15.5224C31.8806 6.94961 24.7439 0 15.9403 0ZM17.2382 20.4226C17.081 20.584 16.7741 20.6166 16.7741 20.6166H15.7579C15.7579 20.6166 13.5159 20.7454 11.5408 18.7803C9.38689 16.6365 7.48499 12.3829 7.48499 12.3829C7.48499 12.3829 7.37521 12.1039 7.49413 11.9695C7.62802 11.8177 7.9931 11.8082 7.9931 11.8082L10.4223 11.7931C10.4223 11.7931 10.651 11.8288 10.8148 11.9441C10.9503 12.0395 11.026 12.2168 11.026 12.2168C11.026 12.2168 11.4185 13.1659 11.9383 14.0244C12.9537 15.7009 13.4261 16.0673 13.7703 15.8877C14.2726 15.6261 14.1221 13.518 14.1221 13.518C14.1221 13.518 14.1313 12.7533 13.8693 12.4123C13.6664 12.1484 13.2839 12.0713 13.115 12.0498C12.9778 12.0323 13.2024 11.7287 13.4934 11.5928C13.9309 11.3885 14.7026 11.3765 15.6149 11.3853C16.3259 11.3924 16.5305 11.4346 16.8082 11.499C17.4529 11.6477 17.4328 12.1242 17.3893 13.1526C17.3763 13.4602 17.3613 13.8172 17.3613 14.2295C17.3613 14.3221 17.3584 14.4209 17.3555 14.5225C17.3405 15.0494 17.3232 15.6528 17.6864 15.8773C17.8727 15.9918 18.3276 15.894 19.4661 14.0467C20.0058 13.1707 20.41 12.1412 20.41 12.1412C20.41 12.1412 20.499 11.9576 20.6362 11.8789C20.7767 11.7986 20.9663 11.8233 20.9663 11.8233L23.5227 11.8082C23.5227 11.8082 24.2911 11.7199 24.415 12.0522C24.5456 12.3996 24.1281 13.212 23.0836 14.5427C22.0942 15.8035 21.612 16.2689 21.6547 16.6796C21.6861 16.9807 21.9995 17.2524 22.6021 17.7867C23.8577 18.901 24.1942 19.4872 24.2751 19.6281C24.2818 19.6397 24.2867 19.6484 24.2903 19.654C24.8533 20.5466 23.6658 20.6166 23.6658 20.6166L21.3946 20.6468C21.3946 20.6468 20.9073 20.739 20.2653 20.3177C19.929 20.0972 19.6003 19.7371 19.2873 19.394C18.8093 18.8702 18.3677 18.3862 17.9908 18.5005C17.3579 18.6929 17.3771 19.9958 17.3771 19.9958C17.3771 19.9958 17.3821 20.2748 17.2382 20.4226Z" fill="#67D43D"/>
</svg>
