<svg width="32" height="30" viewBox="0 0 32 30" fill="none" xmlns="http://www.w3.org/2000/svg">
<path fill-rule="evenodd" clip-rule="evenodd" d="M31.5001 15C31.5001 23.2843 24.6035 30 16.0962 30C7.58892 30 0.692383 23.2843 0.692383 15C0.692383 6.71573 7.58892 0 16.0962 0C24.6035 0 31.5001 6.71573 31.5001 15ZM16.6002 23.3453H16.604C21.6542 23.3433 25.7615 19.3427 25.7636 14.4259C25.7645 12.0427 24.8127 9.80176 23.0833 8.11588C21.354 6.42992 19.0542 5.50103 16.6039 5.5C11.5552 5.5 7.44623 9.50106 7.44422 14.4189C7.44354 15.9909 7.86532 17.5253 8.66688 18.878L7.36743 23.5L12.2231 22.2597C13.5609 22.9703 15.0672 23.3448 16.6002 23.3453Z" fill="#67D43D"/>
<path fill-rule="evenodd" clip-rule="evenodd" d="M12.726 20.8059L12.448 20.6452L9.56664 21.3813L10.3357 18.6456L10.1547 18.3651C9.39263 17.1848 8.99013 15.8205 8.99072 14.4197C8.99239 10.3323 12.4076 7.00684 16.607 7.00684C18.6405 7.00752 20.552 7.77962 21.9893 9.18093C23.4267 10.5822 24.2178 12.4448 24.217 14.4257C24.2153 18.5135 20.8001 21.8393 16.604 21.8393H16.6009C15.2348 21.8388 13.8949 21.4814 12.726 20.8059ZM20.9051 16.3462C21.0647 16.4214 21.1725 16.4721 21.2185 16.5469C21.2757 16.6398 21.2757 17.0861 21.0851 17.6067C20.8943 18.1273 19.98 18.6025 19.5402 18.6664C19.1459 18.7238 18.6469 18.7478 18.0987 18.5781C17.7663 18.4754 17.34 18.3383 16.794 18.1086C14.6484 17.2065 13.1984 15.1815 12.9244 14.7987C12.9052 14.7719 12.8917 14.7532 12.8842 14.7434L12.8824 14.741C12.7613 14.5837 11.9497 13.5292 11.9497 12.4379C11.9497 11.4114 12.4676 10.8733 12.7059 10.6256C12.7223 10.6086 12.7373 10.593 12.7507 10.5787C12.9605 10.3556 13.2085 10.2998 13.3611 10.2998C13.5136 10.2998 13.6664 10.3012 13.7997 10.3077C13.8162 10.3085 13.8333 10.3084 13.851 10.3083C13.9843 10.3075 14.1506 10.3066 14.3146 10.6903C14.3777 10.8379 14.4701 11.0568 14.5675 11.2877C14.7644 11.7546 14.982 12.2704 15.0203 12.3451C15.0775 12.4566 15.1156 12.5867 15.0394 12.7356C15.0279 12.7579 15.0173 12.7789 15.0072 12.799C14.9499 12.913 14.9077 12.9967 14.8105 13.1073C14.7723 13.1508 14.7327 13.1977 14.6932 13.2445C14.6145 13.3379 14.5357 13.4313 14.4672 13.4978C14.3526 13.6089 14.2333 13.7295 14.3668 13.9526C14.5004 14.1757 14.9597 14.9055 15.6401 15.4965C16.3714 16.1318 17.0071 16.4003 17.3293 16.5364C17.3922 16.5629 17.4432 16.5845 17.4806 16.6027C17.7094 16.7143 17.8429 16.6956 17.9764 16.5469C18.1099 16.3982 18.5485 15.8961 18.7011 15.673C18.8536 15.45 19.0062 15.4871 19.216 15.5615C19.4258 15.6359 20.551 16.175 20.7799 16.2866C20.8246 16.3084 20.8663 16.328 20.9051 16.3462Z" fill="#67D43D"/>
</svg>
